<svg width="1526" height="1072" viewBox="0 0 1526 1072" fill="none" xmlns="http://www.w3.org/2000/svg">
<path d="M755.08 1071.85C1172.1 1071.85 1510.16 1025.06 1510.16 967.34C1510.16 909.621 1172.1 862.83 755.08 862.83C338.061 862.83 0 909.621 0 967.34C0 1025.06 338.061 1071.85 755.08 1071.85Z" fill="#EAEAEA"/>
<path d="M633.45 148.39C633.45 148.39 647.52 157.81 661.69 147.8C661.69 147.8 656.5 138.01 652.69 137.05C652.69 137.05 638.92 145.05 623.29 131.55C623.28 131.55 628.67 144.62 633.45 148.39Z" fill="#6E6BFF"/>
<path d="M605.69 105.28C605.69 105.28 603.58 130.42 633.45 148.39C633.45 148.39 617.34 126.57 624 112.03C624 112 615.46 104.05 605.69 105.28Z" fill="#D3CEFD"/>
<path d="M576.88 361.83C576.88 361.83 591.07 352.59 587.43 335.64C587.43 335.64 576.43 336.56 574 339.7C574 339.7 575.93 355.5 557.39 364.57C557.39 364.57 571.53 364.75 576.88 361.83Z" fill="#6E6BFF"/>
<path d="M526.33 370.44C526.33 370.44 548.62 382.25 576.88 361.83C576.88 361.83 550.48 368.08 539.72 356.24C539.72 356.24 529 361 526.33 370.44Z" fill="#D3CEFD"/>
<path d="M1420 229C1420 229 1426.32 213.29 1413.6 201.49C1413.6 201.49 1405.09 208.59 1404.94 212.49C1404.94 212.49 1415.59 224.31 1405.61 242.38C1405.64 242.42 1417.32 234.46 1420 229Z" fill="#6E6BFF"/>
<path d="M1383.57 265.06C1383.57 265.06 1408.57 261.94 1420.03 229C1420.03 229 1402.03 249.27 1386.4 245.75C1386.4 245.75 1380.34 255.75 1383.57 265.06Z" fill="#D3CEFD"/>
<path d="M506.39 226.41C506.39 226.41 513.22 227.73 523.39 220.41C523.39 220.41 524.03 214.01 522.85 210.93C521.67 207.85 519.53 202.72 517.77 203.46C516.01 204.2 510.26 207.34 504.6 208.12C498.94 208.9 504.27 213.21 503.55 218.12C502.83 223.03 503.12 226.45 506.39 226.41Z" fill="#92A5E6"/>
<path d="M1508.57 310.64C1508.57 310.64 1515.4 311.96 1525.57 304.59C1525.57 304.59 1526.2 298.2 1525.03 295.12C1523.86 292.04 1521.7 286.91 1519.95 287.65C1518.2 288.39 1512.43 291.52 1506.77 292.31C1501.11 293.1 1506.44 297.4 1505.77 302.36C1505.1 307.32 1505.3 310.68 1508.57 310.64Z" fill="#92A5E6"/>
<path d="M332.43 258.29C332.43 258.29 337.92 254.97 340.32 243.66C340.32 243.66 336.8 238.88 334.09 237.5C331.38 236.12 326.73 233.94 325.99 235.5C325.25 237.06 323.24 242.8 319.85 246.84C316.46 250.88 322.77 250.53 325.34 254.38C327.91 258.23 330.21 260.34 332.43 258.29Z" fill="#D3CEFD"/>
<path d="M398.2 155.17C398.2 155.17 399.88 148.98 393.82 139.17C393.82 139.17 387.97 138.17 385.06 139.01C382.15 139.85 377.27 141.5 377.83 143.16C378.39 144.82 380.83 150.34 381.2 155.61C381.57 160.88 385.86 156.26 390.38 157.27C394.9 158.28 398 158.18 398.2 155.17Z" fill="#B8C1C9"/>
<path d="M360.4 682.24C360.4 682.24 362.09 676.05 356.02 666.24C356.02 666.24 350.18 665.24 347.26 666.08C344.34 666.92 339.48 668.57 340.03 670.23C340.58 671.89 343.08 677.42 343.41 682.68C343.74 687.94 348.07 683.34 352.58 684.35C357.09 685.36 360.21 685.25 360.4 682.24Z" fill="#B8C1C9"/>
<path d="M1486 449.21C1486 449.21 1487.69 443.02 1481.62 433.21C1481.62 433.21 1475.78 432.21 1472.86 433.05C1469.94 433.89 1465.08 435.55 1465.64 437.21C1466.2 438.87 1468.64 444.39 1469.01 449.66C1469.38 454.93 1473.67 450.31 1478.19 451.32C1482.71 452.33 1485.83 452.22 1486 449.21Z" fill="#B8C1C9"/>
<path d="M1408.15 636.79C1407.44 641.47 1408.15 651.22 1407.54 655.93C1407.27 657.93 1406.85 664.93 1408.85 665.66C1410.59 666.3 1413.54 661.17 1414.64 658.53C1422.25 674.43 1437.91 692.53 1424.17 660.08C1425.56 662.79 1435.08 682.96 1438.81 679.92C1441.54 677.69 1433.21 661.3 1430.97 656.83L1431.08 656.76C1433.73 661.14 1441.03 674.76 1443.75 672.76C1447.33 670.14 1437.37 652.85 1437.37 652.85C1437.37 652.85 1445.29 667.37 1447.9 662.85C1449.36 660.33 1444.41 651.85 1441.25 646.64C1440.59 645.55 1440 644.64 1439.57 643.86C1439.25 643.312 1438.88 642.799 1438.45 642.33C1435.3 637.629 1431.67 633.271 1427.61 629.33C1427.61 629.33 1422.56 622.97 1415.05 626.33C1410.32 628.49 1408.45 634.76 1408.15 636.79Z" fill="#FAA994"/>
<path d="M1104.26 433.47C1103.63 428.77 1100.26 419.61 1099.5 414.92C1099.18 412.92 1097.64 406.08 1095.5 405.92C1093.65 405.8 1092.25 411.54 1091.93 414.38C1080.19 401.24 1060.1 388.26 1082.35 415.56C1080.26 413.35 1065.48 396.64 1062.75 400.56C1060.75 403.47 1073.33 416.88 1076.75 420.56L1076.66 420.65C1072.89 417.18 1062.07 406.15 1060.02 408.82C1057.31 412.34 1071.71 426.16 1071.71 426.16C1071.71 426.16 1060.05 414.42 1058.8 419.44C1058.09 422.28 1065.22 429.02 1069.71 433.16C1070.65 434.03 1071.48 434.78 1072.09 435.36C1072.55 435.798 1073.06 436.186 1073.6 436.52C1077.92 440.16 1082.62 443.341 1087.6 446.01C1087.6 446.01 1094.23 450.7 1100.49 445.37C1104.5 442.05 1104.54 435.5 1104.26 433.47Z" fill="#FAA994"/>
<path d="M1274.81 917.85C1274.81 917.85 1275.46 928.57 1268.02 932.18C1260.58 935.79 1238.49 940.23 1247.43 946.47C1252.56 950.05 1274.9 945.77 1281.26 945.28C1287.62 944.79 1293.84 946.94 1298.26 942.57C1303.08 937.76 1295.97 916.22 1295.97 916.22C1295.97 916.22 1290.71 919.34 1285.76 919.6C1278.58 920 1274.81 917.85 1274.81 917.85Z" fill="#131F2D"/>
<path d="M1384.78 876.54C1384.78 876.54 1402.14 918.45 1399 926.1C1395.86 933.75 1382.35 951.78 1393.17 950.48C1399.38 949.73 1413.17 931.65 1417.6 927.04C1422.03 922.43 1428.08 919.9 1428.44 913.72C1428.83 906.92 1406.61 885.72 1406.61 885.72C1406.61 885.72 1403.79 854.94 1400.27 858.43C1395.19 863.51 1384.78 876.54 1384.78 876.54Z" fill="#131F2D"/>
<path d="M1256.07 410.26C1256.07 410.26 1252.14 392.1 1269.27 389.02C1286.4 385.94 1283.64 398.54 1287.07 401.41C1290.5 404.28 1283.42 414.19 1275.22 416.12C1267.02 418.05 1256.07 410.26 1256.07 410.26Z" fill="#131F2D"/>
<path d="M1209.8 653.37C1212.11 619.28 1284.93 657.07 1284.93 657.07C1284.93 657.07 1315.58 890.97 1301.6 923.79C1298.84 930.27 1286.95 930.16 1281.38 929.55C1242 925.26 1232.23 808.36 1222 757C1216.8 731.2 1208.39 674 1209.8 653.37Z" fill="#6E6BFF"/>
<path d="M1350 652.78C1347.93 661.15 1314.93 669.93 1275.43 661.06C1235.93 652.19 1205.11 642.76 1207.18 634.38C1209.25 626 1243.43 621.87 1282.93 630.75C1322.43 639.63 1352.11 644.41 1350 652.78Z" fill="#131F2D"/>
<path d="M1223 523.38C1216.52 520.486 1210.3 517.047 1204.41 513.1C1204.41 513.1 1225.26 478.1 1268.99 480.45C1275.05 480.77 1302.42 485.45 1308.29 486.45C1383.61 499.45 1350.29 649.53 1350.07 652.77C1273.94 620.49 1207.25 634.37 1207.25 634.37C1206.66 577.17 1221.76 526.24 1223 523.38Z" fill="#FF8DEA"/>
<path d="M1336.48 654.53C1336.48 654.53 1270.1 634.39 1215.19 637.65C1214.01 637.689 1212.88 638.158 1212.02 638.97C1211.15 639.782 1210.62 640.881 1210.51 642.06C1210.51 642.06 1209.43 661.23 1209.91 667.6C1210.99 681.69 1341.23 676.52 1341.23 676.52L1336.48 654.53Z" fill="#6E6BFF"/>
<path d="M1300.79 485.13C1294.12 492.42 1286.63 494.76 1276.86 494.76C1262.07 494.76 1268.96 480.45 1268.96 480.45C1272.6 480.37 1274.58 478.64 1274.88 475.24L1275.25 471.05L1275.42 468.98L1276.01 462.36L1276.53 456.41L1278.66 432.01L1285.48 456.85L1286.64 461.07L1290.64 475.63C1291.33 477.963 1292.62 480.07 1294.39 481.736C1296.17 483.402 1298.35 484.567 1300.72 485.11L1300.79 485.13Z" fill="#FAA994"/>
<path d="M1286.64 461.07C1286.64 461.07 1282.28 468.28 1275.42 468.98L1276.01 462.36C1280.29 461.56 1286.64 461.07 1286.64 461.07Z" fill="#131F2D"/>
<path d="M1308.34 432.27C1308.34 432.27 1306.69 436.08 1307.77 444.55C1309.35 456.95 1294.09 459.8 1290.96 455.87C1290.57 455.38 1294.51 435.27 1294.51 435.27L1299.51 433.37L1308.34 432.27Z" fill="#131F2D"/>
<path d="M1300.62 440.905C1303.99 425.602 1296.07 410.855 1282.93 407.966C1269.79 405.077 1256.41 415.14 1253.04 430.443C1249.68 445.746 1257.6 460.493 1270.74 463.382C1283.88 466.271 1297.26 456.208 1300.62 440.905Z" fill="#FAA994"/>
<path d="M1270.85 412.83C1271.38 413.78 1265.21 427.62 1293 435.2C1320.79 442.78 1309.1 407.94 1288.29 404.15C1258.29 398.69 1250.7 417.15 1252.47 424.44C1254.24 431.73 1270.85 412.83 1270.85 412.83Z" fill="#131F2D"/>
<path d="M1290.63 430.16C1290.63 430.16 1300.32 443.34 1294.37 454.49C1294.37 454.49 1302.23 448.57 1302.8 446.01C1303.37 443.45 1303.13 433.89 1303.13 433.89L1290.63 430.16Z" fill="#131F2D"/>
<path d="M1297.06 443C1293.92 445.06 1290.06 444.75 1288.43 442.32C1286.8 439.89 1288.03 436.25 1291.17 434.2C1294.31 432.15 1298.17 432.45 1299.79 434.88C1301.41 437.31 1300.2 440.91 1297.06 443Z" fill="#FAA994"/>
<path d="M1274.48 435.62C1274.36 435.588 1274.26 435.516 1274.2 435.417C1274.13 435.317 1274.1 435.197 1274.11 435.078C1274.12 434.958 1274.17 434.847 1274.26 434.763C1274.35 434.679 1274.46 434.629 1274.58 434.62C1275.84 434.262 1277.19 434.314 1278.42 434.766C1279.65 435.219 1280.71 436.05 1281.44 437.14C1281.48 437.196 1281.51 437.261 1281.52 437.329C1281.54 437.397 1281.54 437.467 1281.53 437.535C1281.51 437.604 1281.49 437.669 1281.45 437.726C1281.41 437.784 1281.36 437.833 1281.3 437.87C1281.17 437.935 1281.03 437.957 1280.89 437.934C1280.75 437.91 1280.63 437.842 1280.53 437.74C1278.9 436.46 1276.9 435.725 1274.83 435.64C1274.71 435.668 1274.59 435.661 1274.48 435.62V435.62Z" fill="#080435"/>
<path d="M1277.89 441.93C1277.73 443.16 1276.82 444.07 1275.89 443.93C1275.38 443.798 1274.94 443.468 1274.67 443.013C1274.4 442.557 1274.32 442.013 1274.45 441.5C1274.61 440.26 1275.52 439.35 1276.45 439.5C1276.96 439.632 1277.4 439.962 1277.67 440.417C1277.94 440.873 1278.02 441.417 1277.89 441.93V441.93Z" fill="#080435"/>
<path d="M1254.45 435.45C1254.37 435.449 1254.28 435.429 1254.21 435.391C1254.13 435.352 1254.07 435.297 1254.02 435.23C1253.98 435.175 1253.95 435.113 1253.93 435.046C1253.91 434.979 1253.91 434.909 1253.92 434.841C1253.94 434.773 1253.96 434.708 1254 434.651C1254.04 434.594 1254.09 434.546 1254.15 434.51C1255.21 433.719 1256.49 433.282 1257.81 433.261C1259.13 433.239 1260.43 433.634 1261.51 434.39C1261.57 434.426 1261.62 434.473 1261.66 434.529C1261.7 434.584 1261.73 434.647 1261.75 434.714C1261.76 434.781 1261.76 434.851 1261.75 434.919C1261.74 434.987 1261.72 435.052 1261.68 435.11C1261.59 435.217 1261.46 435.29 1261.32 435.317C1261.18 435.344 1261.04 435.324 1260.91 435.26C1258.91 434.66 1256.77 434.695 1254.79 435.36C1254.69 435.428 1254.57 435.46 1254.45 435.45V435.45Z" fill="#080435"/>
<path d="M1260.16 440.06C1260.36 440.546 1260.37 441.092 1260.17 441.581C1259.98 442.069 1259.59 442.461 1259.11 442.67C1258.58 442.724 1258.04 442.575 1257.61 442.252C1257.19 441.93 1256.9 441.457 1256.8 440.93C1256.59 440.45 1256.58 439.909 1256.77 439.421C1256.96 438.934 1257.33 438.538 1257.8 438.32C1258.34 438.255 1258.89 438.399 1259.33 438.722C1259.76 439.046 1260.06 439.524 1260.16 440.06V440.06Z" fill="#080435"/>
<g opacity="0.3">
<path opacity="0.3" d="M1288.45 440.513C1288.99 433.32 1285.21 427.177 1280.01 426.792C1274.82 426.407 1270.18 431.926 1269.64 439.119C1269.11 446.312 1272.89 452.455 1278.08 452.84C1283.28 453.225 1287.92 447.706 1288.45 440.513Z" fill="white"/>
</g>
<g opacity="0.3">
<path opacity="0.3" d="M1263.49 437C1263.76 443.91 1260.24 450.72 1255.64 452.23C1251.04 453.74 1247.1 449.37 1246.83 442.46C1246.56 435.55 1250.08 428.74 1254.68 427.23C1259.28 425.72 1263.22 430.12 1263.49 437Z" fill="white"/>
</g>
<path d="M1289 439.13C1289.04 438.199 1289 437.266 1288.9 436.34C1288.9 436.02 1288.83 435.69 1288.77 435.34C1288.68 434.8 1288.58 434.28 1288.44 433.76C1288.09 432.138 1287.42 430.604 1286.46 429.252C1285.5 427.901 1284.27 426.76 1282.85 425.9C1281.84 425.332 1280.72 424.991 1279.56 424.9C1278.41 424.808 1277.25 424.968 1276.16 425.37C1275.69 425.54 1275.24 425.747 1274.81 425.99C1271.31 427.92 1268.81 432.17 1268.13 436.99C1268.05 437.533 1267.99 438.081 1267.97 438.63C1267.9 439.94 1267.97 441.255 1268.18 442.55C1268.38 443.763 1268.72 444.951 1269.18 446.09C1270.09 448.57 1271.83 450.657 1274.11 451.99C1274.96 452.453 1275.88 452.768 1276.83 452.92L1277.67 453.01C1278.74 453.052 1279.81 452.886 1280.81 452.52C1281.91 452.119 1282.92 451.522 1283.81 450.76C1286.25 448.571 1287.91 445.653 1288.56 442.44C1288.65 442.09 1288.72 441.74 1288.78 441.38C1288.9 440.635 1288.97 439.884 1289 439.13V439.13ZM1272.2 449.33C1271.28 448.282 1270.54 447.081 1270.03 445.78C1269.59 444.701 1269.27 443.573 1269.09 442.42C1268.9 441.243 1268.83 440.051 1268.88 438.86C1268.89 438.304 1268.94 437.75 1269.02 437.2C1269.64 432.54 1272.02 428.42 1275.47 426.67C1275.79 426.496 1276.13 426.348 1276.47 426.23C1277.35 425.901 1278.28 425.751 1279.22 425.79C1280.33 425.841 1281.4 426.149 1282.37 426.69C1283.83 427.524 1285.04 428.719 1285.9 430.16C1286.29 430.796 1286.63 431.466 1286.9 432.16V432.27V432.34C1287.05 432.7 1287.18 433.071 1287.28 433.45C1287.5 434.133 1287.67 434.831 1287.78 435.54C1287.92 436.323 1287.99 437.115 1288.01 437.91C1288.01 438.44 1288.01 438.96 1288.01 439.49C1288.01 440.02 1287.91 440.58 1287.83 441.12C1287.41 444.429 1285.88 447.499 1283.49 449.83C1282.6 450.663 1281.56 451.309 1280.42 451.73C1279.28 452.142 1278.05 452.262 1276.85 452.08C1276.03 451.944 1275.24 451.667 1274.51 451.26C1273.63 450.771 1272.84 450.135 1272.18 449.38C1272.18 449.38 1272.23 449.34 1272.21 449.33H1272.2Z" fill="#131F2D"/>
<path d="M1264 437C1264.05 437.542 1264.06 438.086 1264.05 438.63C1264.07 439.819 1263.98 441.008 1263.77 442.18C1263.41 444.534 1262.57 446.789 1261.31 448.81C1260.27 450.565 1258.68 451.933 1256.79 452.71L1256.45 452.82C1255.62 453.082 1254.75 453.167 1253.89 453.071C1253.03 452.974 1252.2 452.698 1251.45 452.26C1248.6 450.66 1246.54 447.02 1245.93 442.51C1244.94 435.16 1248.13 427.73 1253.02 425.93L1253.33 425.83C1253.74 425.702 1254.16 425.612 1254.58 425.56C1255.16 425.499 1255.75 425.52 1256.32 425.62C1257.05 425.762 1257.75 426.015 1258.4 426.37C1261.24 427.97 1263.31 431.62 1263.91 436.13C1263.94 436.42 1264 436.71 1264 437Z" fill="#131F2D"/>
<path d="M1262.53 439.07C1262.4 439.051 1262.28 439.004 1262.17 438.934C1262.07 438.863 1261.98 438.769 1261.91 438.66C1261.86 438.567 1261.82 438.463 1261.81 438.355C1261.8 438.248 1261.81 438.139 1261.84 438.035C1261.87 437.932 1261.92 437.836 1261.99 437.754C1262.06 437.672 1262.15 437.606 1262.25 437.56C1263.47 437.04 1264.79 436.772 1266.12 436.772C1267.45 436.772 1268.77 437.04 1269.99 437.56C1270.09 437.594 1270.19 437.649 1270.27 437.722C1270.35 437.794 1270.41 437.882 1270.46 437.981C1270.5 438.079 1270.53 438.186 1270.53 438.294C1270.53 438.402 1270.51 438.51 1270.47 438.61C1270.38 438.814 1270.21 438.974 1270 439.057C1269.79 439.141 1269.56 439.142 1269.35 439.06C1268.36 438.638 1267.3 438.415 1266.23 438.405C1265.15 438.395 1264.09 438.597 1263.09 439C1262.91 439.077 1262.72 439.101 1262.53 439.07Z" fill="#131F2D"/>
<path d="M1294.11 410.21C1294.11 410.21 1299.39 392.36 1316.11 396.93C1332.83 401.5 1327.87 410.07 1325.97 415.58C1324.56 419.68 1316.54 425.4 1308.31 423.58C1300.08 421.76 1294.11 410.21 1294.11 410.21Z" fill="#131F2D"/>
<path d="M1302 467.25C1301.92 467.249 1301.84 467.229 1301.76 467.191C1301.69 467.152 1301.63 467.097 1301.58 467.03C1299.03 463.809 1295.67 461.326 1291.84 459.84C1291.71 459.791 1291.6 459.691 1291.54 459.563C1291.48 459.434 1291.48 459.288 1291.53 459.155C1291.57 459.022 1291.67 458.915 1291.8 458.856C1291.93 458.797 1292.08 458.791 1292.21 458.84C1296.24 460.382 1299.77 462.992 1302.43 466.39C1302.49 466.468 1302.52 466.56 1302.52 466.656C1302.53 466.751 1302.51 466.847 1302.47 466.932C1302.42 467.016 1302.35 467.087 1302.27 467.136C1302.19 467.186 1302.1 467.211 1302 467.21V467.25Z" fill="#131F2D"/>
<path d="M1267.66 456C1266.79 456.054 1265.92 455.923 1265.11 455.614C1264.29 455.306 1263.55 454.827 1262.94 454.21C1262.9 454.154 1262.89 454.087 1262.9 454.022C1262.91 453.956 1262.94 453.896 1262.99 453.851C1263.04 453.807 1263.1 453.782 1263.17 453.779C1263.23 453.777 1263.3 453.799 1263.35 453.84C1266.35 457.18 1273.35 454.23 1273.35 454.2C1273.42 454.169 1273.49 454.167 1273.56 454.193C1273.63 454.22 1273.69 454.272 1273.72 454.34C1273.75 454.409 1273.75 454.486 1273.72 454.555C1273.69 454.624 1273.64 454.679 1273.57 454.71C1271.69 455.493 1269.69 455.93 1267.66 456V456Z" fill="#020202"/>
<path d="M1269 480.45C1269 480.45 1262.86 494.45 1276.9 494.76C1276.9 494.76 1269.52 501.71 1264.36 498.92C1259.2 496.13 1264.14 493.66 1261.94 491.8C1259.74 489.94 1257.33 488.6 1259.53 486.43C1261.73 484.26 1259.53 480.43 1259.53 480.43C1259.53 480.43 1265.59 479.12 1269 480.45Z" fill="#221BB2"/>
<path d="M1261.85 517.25C1263.07 517.25 1264.06 516.319 1264.06 515.17C1264.06 514.021 1263.07 513.09 1261.85 513.09C1260.63 513.09 1259.64 514.021 1259.64 515.17C1259.64 516.319 1260.63 517.25 1261.85 517.25Z" fill="#221BB2"/>
<path d="M1254.79 581.81C1254.82 581.368 1254.71 580.929 1254.48 580.549C1254.26 580.169 1253.92 579.865 1253.52 579.678C1253.12 579.491 1252.67 579.428 1252.23 579.498C1251.8 579.568 1251.39 579.767 1251.07 580.071C1250.75 580.374 1250.52 580.767 1250.43 581.199C1250.33 581.631 1250.37 582.081 1250.53 582.493C1250.69 582.904 1250.97 583.257 1251.34 583.507C1251.71 583.756 1252.14 583.889 1252.58 583.89C1253.15 583.906 1253.7 583.696 1254.11 583.306C1254.53 582.917 1254.77 582.378 1254.79 581.81V581.81Z" fill="#221BB2"/>
<path d="M1254.79 551.61C1254.82 551.168 1254.71 550.729 1254.48 550.349C1254.26 549.969 1253.92 549.665 1253.52 549.478C1253.12 549.291 1252.67 549.228 1252.23 549.298C1251.8 549.368 1251.39 549.567 1251.07 549.871C1250.75 550.174 1250.52 550.567 1250.43 550.999C1250.33 551.431 1250.37 551.881 1250.53 552.293C1250.69 552.704 1250.97 553.058 1251.34 553.307C1251.71 553.556 1252.14 553.689 1252.58 553.69C1253.15 553.706 1253.7 553.496 1254.11 553.107C1254.53 552.717 1254.77 552.179 1254.79 551.61V551.61Z" fill="#221BB2"/>
<path d="M1215.31 537.26C1215.31 537.26 1207.12 569.39 1207.31 622.1L1259.46 480.45C1259.46 480.45 1226.15 482.45 1184.83 473.39C1159.37 467.82 1113.36 431.64 1108.57 429.08C1103.4 426.32 1085.71 448 1085.71 448C1081.83 455 1147.23 523 1215.31 537.26Z" fill="#FF8DEA"/>
<path d="M1310.79 487C1310.79 487 1359.13 487 1429.43 621.72C1430.42 623.599 1430.63 625.79 1430.01 627.821C1429.4 629.853 1428.01 631.562 1426.15 632.58L1410.74 641C1407.53 642.753 1403.8 643.263 1400.24 642.431C1396.68 641.598 1393.55 639.483 1391.46 636.49C1376.81 615.55 1343.37 570.84 1316.56 557.99C1281.17 541 1310.79 487 1310.79 487Z" fill="#FF8DEA"/>
<path d="M1300.79 485.13L1310.79 486.96C1310.79 486.96 1312.56 491.85 1307.66 493.4C1302.76 494.95 1301.79 494.95 1300.22 498.51C1298.65 502.07 1292.55 502.23 1290.41 500.99C1288.27 499.75 1284.51 504.4 1281.03 504.4C1277.55 504.4 1275.5 498.61 1276.86 494.76C1276.86 494.76 1289.92 492.66 1300.79 485.13Z" fill="#221BB2"/>
<path d="M1357.59 593.4C1357.53 593.399 1357.47 593.382 1357.42 593.35C1357.36 593.319 1357.32 593.274 1357.29 593.22C1349.53 577.71 1330.58 565.28 1330.39 565.16C1330.32 565.109 1330.27 565.032 1330.25 564.945C1330.23 564.857 1330.24 564.766 1330.29 564.69C1330.34 564.616 1330.42 564.565 1330.51 564.548C1330.59 564.531 1330.69 564.55 1330.76 564.6C1330.95 564.72 1350.05 577.24 1357.89 592.91C1357.93 592.991 1357.94 593.084 1357.91 593.17C1357.88 593.256 1357.82 593.327 1357.74 593.37L1357.59 593.4Z" fill="#131F2D"/>
<path d="M1215.31 537.6H1215.21C1215.17 537.587 1215.13 537.566 1215.09 537.538C1215.06 537.51 1215.03 537.476 1215.01 537.436C1214.99 537.397 1214.98 537.354 1214.97 537.31C1214.97 537.266 1214.98 537.222 1214.99 537.18L1218.16 526.41C1218.19 526.326 1218.25 526.256 1218.33 526.215C1218.4 526.174 1218.5 526.165 1218.58 526.19C1218.62 526.202 1218.66 526.223 1218.7 526.251C1218.73 526.279 1218.76 526.314 1218.78 526.353C1218.8 526.392 1218.81 526.435 1218.82 526.479C1218.82 526.524 1218.81 526.568 1218.8 526.61L1215.63 537.37C1215.61 537.437 1215.56 537.495 1215.51 537.536C1215.45 537.577 1215.38 537.6 1215.31 537.6V537.6Z" fill="#131F2D"/>
<path d="M1250.37 655C1250.37 655 1297.21 837.57 1373.51 901.54C1377.14 904.56 1381.58 906.435 1386.28 906.926C1390.97 907.417 1395.71 906.503 1399.88 904.3L1413.41 897.22C1415.6 896.071 1417.55 894.499 1419.13 892.595C1420.71 890.69 1421.9 888.491 1422.63 886.125C1423.35 883.759 1423.6 881.272 1423.36 878.808C1423.12 876.344 1422.4 873.952 1421.23 871.77C1401 834 1352.77 738.32 1336.48 654.53L1250.37 655Z" fill="#6E6BFF"/>
<path d="M1299.47 793.52C1299.26 793.03 1279.16 744.76 1272.16 717.36C1265.23 690.22 1242.86 680.74 1242.64 680.65L1243 679.78C1243.23 679.87 1266 689.54 1273.07 717.13C1280.07 744.46 1300.13 792.67 1300.33 793.13L1299.47 793.52Z" fill="#131F2D"/>
<path d="M218.85 413.55C218.85 413.55 220.01 427.62 201.9 430.91C183.79 434.2 187.36 444.39 190.9 449.83C194.44 455.27 170.36 444.52 147.9 464.51C125.44 484.5 158.52 504.36 176.62 501.97C194.72 499.58 263.38 484.83 266.76 479.65C270.14 474.47 274.83 460.24 265.7 458.25C249.37 454.68 269.42 442.1 258.82 436.25C248.22 430.4 218.85 413.55 218.85 413.55Z" fill="#131F2D"/>
<path d="M327.5 484.2C340.81 474.38 351.17 458.92 358.34 438.2C363.75 422.54 367.02 397.2 367.09 396.62L338.38 402.39C337.02 413.73 325.79 447.92 307.38 460.05C299.02 465.56 283.33 472.25 271.04 468.64L266.69 498.64C287.61 504.77 308.99 496.56 324.8 486.11C325.7 485.49 326.61 484.86 327.5 484.2Z" fill="#FAA994"/>
<path d="M57.83 706.86C57.83 706.86 34.15 702.92 27 705.4C19.85 707.88 3.00002 719.4 4.18002 709.4C4.89002 703.66 21.82 691.87 26.18 688.02C30.54 684.17 32.9 678.18 38.66 678.71C41.39 678.96 44.58 684.13 49.11 686.57C54.4618 689.328 60.1029 691.485 65.93 693C65.93 693 72.93 701.34 69.7 704.42C65 708.82 57.83 706.86 57.83 706.86Z" fill="#131F2D"/>
<path d="M216.45 872.84C216.45 872.84 224.6 895.43 230.27 900.46C235.94 905.49 254.27 914.59 244.92 918.41C239.57 920.6 221 911.6 215.53 909.72C210.06 907.84 203.66 908.67 201.3 903.39C200.18 900.88 203.13 895.57 203.05 890.39C202.82 884.357 201.925 878.367 200.38 872.53C200.38 872.53 204.21 862.31 208.49 863.66C214.66 865.65 216.45 872.84 216.45 872.84Z" fill="#131F2D"/>
<path d="M273.08 638C271.18 657.8 267.97 683.43 262.59 714.7C252.28 774.59 240.16 834.93 234.22 863.86C233.229 868.825 230.598 873.313 226.749 876.602C222.901 879.892 218.059 881.793 213 882L207.45 882.19C196.28 882.58 187.27 872.94 188.15 861.54L203.27 665.69L205.35 630.61C205.35 630.61 276.23 605.2 273.08 638Z" fill="#FF8DEA"/>
<path d="M147.82 617.21C148.39 625.46 176.54 638.56 213.2 635.81C249.86 633.06 278.86 628.52 278.29 620.27C277.72 612.02 247.81 603.16 211.14 605.91C174.47 608.66 147.25 609 147.82 617.21Z" fill="#131F2D"/>
<path d="M246.74 625.1L195.19 735.22C191.288 743.553 184.776 750.387 176.642 754.687C168.508 758.987 159.193 760.518 150.11 759.05V759.05C147.631 758.649 145.259 757.751 143.135 756.412C141.012 755.072 139.18 753.317 137.751 751.253C136.321 749.188 135.323 746.856 134.816 744.397C134.309 741.938 134.304 739.401 134.8 736.94L157.66 623.53C158.29 620.74 168.14 619.53 170.94 619.29C194.13 617.49 248.23 614.77 246.74 625.1Z" fill="#FF8DEA"/>
<path d="M192.67 484C192.67 484 209.53 458.07 245.12 467.95C261.93 472.62 282.79 472.12 284.07 503.95C285.21 532.56 287.55 565.95 278.29 620.25C278.29 620.25 220.81 597.45 147.82 617.19C148.08 614.06 152.1 533.38 169.5 489.94C174.5 477.47 187 492.23 192.67 484Z" fill="#6E6BFF"/>
<path d="M151.9 481.87L182.65 511.39C182.65 511.39 276.49 522.92 284.54 506.67C297.83 479.84 284.93 462.77 284.93 462.77C284.93 462.77 255.85 465.84 231.78 464.88C226.29 464.66 216.03 464.88 210.63 465.09C173 466.41 151.9 481.87 151.9 481.87Z" fill="#6E6BFF"/>
<path d="M151.9 481.87C149.17 484.87 149.74 494.99 160.21 503.87C170.68 512.75 179.3 515.8 182.65 511.35C185.18 507.99 182.2 494.57 172.18 486.28C161.86 477.78 153.84 479.72 151.9 481.87Z" fill="#131F2D"/>
<path d="M172.3 619.18C172.3 619.18 222.09 611.23 270.66 622.23C271.738 622.471 272.69 623.099 273.337 623.994C273.983 624.89 274.28 625.991 274.17 627.09L272.35 645.23L221.52 632.23L172.3 619.18Z" fill="#FF8DEA"/>
<path d="M217.5 464.9C222.35 472.79 235.95 479.5 244.39 476.9C251.58 474.66 246.67 465.06 246.67 465.06C243.43 464.46 241.92 462.53 242.17 459.25L242.49 455.25L242.65 453.25L243.14 446.87L243.59 441.14L245.41 417.63L235.52 440.27L233.83 444.12L228 457.33C227.085 459.405 225.634 461.2 223.795 462.529C221.957 463.857 219.798 464.672 217.54 464.89L217.5 464.9Z" fill="#FAA994"/>
<path d="M233.83 444.06C233.83 444.06 236.63 451.54 242.65 453.19L243.14 446.81C239.44 445.44 233.83 444.06 233.83 444.06Z" fill="#E7925C"/>
<path d="M218.85 413.55C218.85 413.55 219.74 417.42 217.48 425.31C214.17 436.87 227.37 441.78 230.77 438.49C231.19 438.09 230.77 418.4 230.77 418.4L226.55 415.86L218.85 413.55Z" fill="#131F2D"/>
<path d="M268.56 421.46C268.64 406.46 258.82 394.14 246.61 394.08C234.4 394.02 224.45 406.16 224.36 421.21C224.27 436.26 234.1 448.53 246.31 448.6C258.52 448.67 268.47 436.52 268.56 421.46Z" fill="#FAA994"/>
<path d="M255.33 400.46C254.71 401.3 258.11 415.34 232.11 418.54C206.11 421.74 221.89 390.31 241.11 389.71C268.8 388.83 272.72 407.47 270.02 414.15C267.32 420.83 255.33 400.46 255.33 400.46Z" fill="#131F2D"/>
<path d="M235 414.09C235 414.09 224.32 425.23 227.94 436.69C227.94 436.69 221.82 429.93 221.69 427.42C221.56 424.91 223.26 415.84 223.26 415.84L235 414.09Z" fill="#131F2D"/>
<path d="M227.29 425.34C229.78 427.75 233.29 428.01 235.11 425.93C236.93 423.85 236.4 420.22 233.91 417.82C231.42 415.42 227.91 415.15 226.09 417.23C224.27 419.31 224.81 422.94 227.29 425.34Z" fill="#FAA994"/>
<path d="M248.6 421.61C248.674 421.59 248.741 421.553 248.799 421.503C248.856 421.453 248.901 421.39 248.93 421.32C248.98 421.196 248.98 421.058 248.93 420.935C248.879 420.812 248.782 420.713 248.66 420.66C247.57 420.141 246.338 419.998 245.157 420.255C243.977 420.512 242.916 421.154 242.14 422.08C242.093 422.126 242.056 422.182 242.031 422.243C242.005 422.304 241.992 422.369 241.992 422.435C241.992 422.501 242.005 422.566 242.031 422.627C242.056 422.688 242.093 422.743 242.14 422.79C242.239 422.874 242.365 422.92 242.495 422.92C242.625 422.92 242.751 422.874 242.85 422.79C244.476 421.816 246.376 421.401 248.26 421.61C248.314 421.632 248.372 421.644 248.43 421.644C248.488 421.644 248.546 421.632 248.6 421.61V421.61Z" fill="#080435"/>
<path d="M243.28 426.93C243.23 428.13 243.9 429.13 244.77 429.16C245.64 429.19 246.38 428.25 246.43 427.05C246.48 425.85 245.8 424.85 244.93 424.82C244.06 424.79 243.32 425.73 243.28 426.93Z" fill="#080435"/>
<path d="M266.52 424.33C266.624 424.344 266.729 424.325 266.822 424.276C266.914 424.227 266.989 424.15 267.036 424.056C267.082 423.962 267.098 423.856 267.081 423.753C267.063 423.649 267.014 423.554 266.94 423.48C266.134 422.581 265.051 421.976 263.863 421.762C262.674 421.549 261.449 421.738 260.38 422.3C260.259 422.357 260.164 422.458 260.116 422.583C260.067 422.708 260.069 422.846 260.12 422.97C260.183 423.083 260.283 423.17 260.404 423.218C260.524 423.265 260.657 423.269 260.78 423.23C262.66 422.951 264.58 423.302 266.24 424.23C266.322 424.29 266.419 424.325 266.52 424.33V424.33Z" fill="#080435"/>
<path d="M259.17 427.06C258.917 427.486 258.831 427.991 258.929 428.477C259.027 428.963 259.301 429.395 259.7 429.69C260.49 430.05 261.54 429.46 262.04 428.37C262.293 427.944 262.379 427.439 262.281 426.953C262.183 426.467 261.909 426.035 261.51 425.74C260.72 425.38 259.67 426 259.17 427.06Z" fill="#080435"/>
<path d="M190.08 447.84L190.72 446.59C189.91 446.04 187.91 439.95 189.47 434.95C190.86 430.51 194.47 428.26 200.28 428.28C217.45 428.34 220.28 414.28 220.33 414.14L218.96 413.88C218.85 414.41 216.26 426.93 200.29 426.88C191.76 426.88 188.85 431.47 187.91 435.35C186.62 440.69 188.6 447.09 190.08 447.84Z" fill="#131F2D"/>
<path d="M155.84 759.58C134.96 758.94 85.5 738.37 58.05 726.24C52.9255 723.974 48.9061 719.772 46.8694 714.552C44.8328 709.332 44.9444 703.518 47.18 698.38L47.77 697.04C49.6492 692.712 52.8988 689.122 57.0185 686.822C61.1382 684.522 65.8996 683.639 70.57 684.31L165.22 697.88C165.22 697.88 194.74 760.78 155.84 759.58Z" fill="#FF8DEA"/>
<path d="M200.12 726.22L198.89 725.76C199.05 725.35 214.63 684.03 219.55 671.06C224.55 657.9 239.34 647.78 239.97 647.36L240.7 648.44C240.55 648.54 225.62 658.75 220.77 671.52C215.85 684.49 200.28 725.81 200.12 726.22Z" fill="#020202"/>
<path d="M257.74 437.8C257.74 437.8 255.66 442.42 251.31 442.41C245.96 442.41 244.94 436.81 244.94 436.81C244.94 436.81 251.46 439 257.74 437.8Z" fill="white"/>
<path d="M120.81 530.64C104.38 528.71 87.7101 520.43 71.2001 505.97C58.7301 495.05 40.7601 471.63 40.4301 471.18L71.1301 462.77C77.9301 471.94 104.28 498.26 126.3 499.66C135.75 500.25 144.48 496.55 152.91 488.34C153.531 487.74 154.281 487.29 155.102 487.025C155.924 486.759 156.796 486.686 157.65 486.81C161.01 487.31 166.84 489.53 174.65 497.66C180.09 503.34 176.17 508.83 176.17 508.83C161.04 524.53 143.05 532.17 124.17 530.94C123.03 530.873 121.91 530.773 120.81 530.64Z" fill="#FAA994"/>
<path d="M340.35 406.44C337.87 402.2 334.88 392.74 332.49 388.44C331.49 386.57 328.4 380.08 330.1 378.82C331.57 377.73 336.43 381.76 338.52 383.95C340.01 366.71 348.63 345.12 347.36 379.79C347.71 376.79 349.48 354.98 354.36 356.79C357.9 358.14 355.88 376.06 355.36 380.94H355.49C356.49 376.03 358.49 361.03 361.95 362.16C366.48 363.64 363.19 382.87 363.19 382.87C363.19 382.87 365.51 366.87 369.78 370.35C372.18 372.35 370.5 381.76 369.36 387.62C369.12 388.85 368.9 389.93 368.76 390.74C368.646 391.347 368.468 391.94 368.23 392.51C366.915 397.878 364.982 403.077 362.47 408C361.609 410.2 360.016 412.035 357.959 413.197C355.903 414.359 353.509 414.777 351.18 414.38C345.64 413.71 341.42 408.28 340.35 406.44Z" fill="#FAA994"/>
<path d="M71.5701 470.56C71.8001 465.66 70.0801 455.88 70.2101 450.97C70.2601 448.84 69.9701 441.67 67.8801 441.34C66.0601 441.06 63.6201 446.88 62.7901 449.79C53.4901 435.2 35.8501 420.05 53.0301 450.2C51.3501 447.73 39.6701 429.2 36.2301 433.06C33.7101 435.89 43.7901 450.84 46.5101 454.92L46.4101 455.01C43.2901 451.1 34.5301 438.76 31.9901 441.35C28.6601 444.76 40.4801 460.29 40.4801 460.29C40.4801 460.29 31.0001 447.17 28.8001 452.26C27.5901 455.13 33.4501 462.71 37.1701 467.38C37.9501 468.38 38.6401 469.21 39.1701 469.86C39.5485 470.347 39.9813 470.79 40.4601 471.18C44.1085 475.311 48.2263 479.003 52.7301 482.18C54.5123 483.744 56.7814 484.643 59.1514 484.723C61.5215 484.803 63.8462 484.06 65.7301 482.62C70.2401 479.46 71.4801 472.69 71.5701 470.56Z" fill="#FAA994"/>
<path d="M767.57 941.57C886.996 941.57 983.81 928.524 983.81 912.43C983.81 896.336 886.996 883.29 767.57 883.29C648.144 883.29 551.33 896.336 551.33 912.43C551.33 928.524 648.144 941.57 767.57 941.57Z" fill="#FF8DEA"/>
<path d="M983.81 862.05H551.33V912.43H983.81V862.05Z" fill="#FF8DEA"/>
<path d="M767.57 891.19C886.996 891.19 983.81 878.144 983.81 862.05C983.81 845.956 886.996 832.91 767.57 832.91C648.144 832.91 551.33 845.956 551.33 862.05C551.33 878.144 648.144 891.19 767.57 891.19Z" fill="#FF8DEA"/>
<path d="M909.91 234.61C907.39 229.68 904.6 218.81 902.18 213.83C901.12 211.68 896.64 201.66 898.62 200.31C900.34 199.13 907 206.42 909.21 209.01C911.92 189.5 945.21 208.01 943.6 214.58C943.26 215.96 942.96 217.17 942.74 218.09C942.583 218.781 942.349 219.452 942.04 220.09C940.241 226.117 937.758 231.918 934.64 237.38C933.561 239.814 931.686 241.809 929.324 243.037C926.962 244.265 924.252 244.654 921.64 244.14C915.41 243.09 911 236.75 909.91 234.61Z" fill="#FAA994"/>
<path d="M729 401.92C729 401.92 734.72 369.22 794.46 364.46C840.46 360.8 887.11 387.17 892.64 427.26C900.3 482.71 901.64 512.35 895.49 540.26C895.49 540.26 768.89 517.95 729.7 544.85C729.7 544.85 743.16 493.4 728.06 420.85C726.694 414.568 727.019 408.036 729 401.92Z" fill="#FF8DEA"/>
<path d="M670 261.33C682.7 302.73 751.39 366 776.18 367C781.51 367.22 730.33 431.39 729.48 428.66C725.18 415 721.04 409.03 711.91 399.08C682.01 366.49 641.17 322.78 634.27 282.58L670 261.33Z" fill="#FF8DEA"/>
<path d="M806.35 364.91C806.35 364.91 894.35 330.21 906.14 239.25C906.31 237.941 906.749 236.682 907.43 235.552C908.111 234.421 909.02 233.445 910.098 232.683C911.176 231.922 912.4 231.393 913.693 231.129C914.986 230.865 916.32 230.872 917.61 231.15L934.83 234.87C936.355 235.196 937.726 236.027 938.72 237.228C939.715 238.429 940.275 239.931 940.31 241.49C940.69 258.6 938.37 314 899 385C895 392.28 886.91 403.54 892.51 427.2L806.35 364.91Z" fill="#FF8DEA"/>
<path d="M729.61 544.79C729.69 552.79 766.79 556.86 812.74 556.17C858.69 555.48 895.47 548.17 895.4 540.17C895.33 532.17 857.22 518.67 811.27 519.36C765.32 520.05 729.54 536.82 729.61 544.79Z" fill="#131F2D"/>
<path d="M795.3 356.47L796.73 341L797.14 336.5L799.58 310.06L805.82 334.53L809.56 349.22L810.74 353.87C811.54 357.03 813.62 357.29 816.57 359.55C817.77 360.47 825.33 365.98 819.03 370.55C811.18 376.2 793.77 373.83 786.03 367.55C786.06 367.52 794.84 361.46 795.3 356.47Z" fill="#FAA994"/>
<path d="M817.4 296.58C819.288 300.844 820.262 305.456 820.26 310.12C820.26 317.98 808.71 301.12 808.71 301.12L817.4 296.58Z" fill="#131F2D"/>
<path d="M809.402 345.256C821.142 341.117 826.614 326.285 821.623 312.128C816.632 297.971 803.068 289.85 791.328 293.989C779.588 298.128 774.116 312.959 779.107 327.117C784.098 341.274 797.662 349.395 809.402 345.256Z" fill="#FAA994"/>
<path d="M777 319.59L787.44 316.22C788.573 315.86 789.611 315.25 790.477 314.434C791.342 313.619 792.013 312.62 792.44 311.51C793.9 307.63 796.16 305.31 806.2 303.58C818.91 301.38 825.64 292.11 825.61 285.22C825.58 278.33 818.16 274.99 812.5 279.54C806.84 284.09 807.9 275.64 801.63 276.1C789.92 276.94 789.63 286.16 780.27 287.85C768 290.06 748 304 763 323.29L777 319.59Z" fill="#131F2D"/>
<path d="M801.29 318.23C801.362 318.165 801.412 318.079 801.431 317.983C801.45 317.888 801.438 317.789 801.397 317.701C801.355 317.614 801.286 317.542 801.2 317.496C801.114 317.451 801.016 317.435 800.92 317.45C799.832 317.531 798.8 317.966 797.982 318.688C797.164 319.41 796.605 320.38 796.39 321.45C796.359 321.566 796.376 321.691 796.435 321.795C796.495 321.9 796.594 321.977 796.71 322.01C796.827 322.031 796.948 322.009 797.051 321.948C797.154 321.888 797.231 321.793 797.27 321.68C798.119 320.181 799.441 319.006 801.03 318.34C801.127 318.333 801.218 318.295 801.29 318.23V318.23Z" fill="#080435"/>
<path d="M800.57 324.38C800.607 324.616 800.699 324.84 800.84 325.034C800.98 325.227 801.164 325.385 801.377 325.493C801.59 325.601 801.826 325.658 802.065 325.657C802.304 325.657 802.539 325.6 802.752 325.49C802.965 325.381 803.148 325.223 803.288 325.029C803.427 324.835 803.519 324.611 803.555 324.374C803.591 324.138 803.57 323.897 803.495 323.67C803.419 323.443 803.291 323.237 803.12 323.07C802.62 322.07 801.64 321.6 800.94 321.97C800.581 322.248 800.343 322.653 800.274 323.101C800.205 323.55 800.311 324.007 800.57 324.38V324.38Z" fill="#080435"/>
<path d="M817.55 313.41C817.605 313.385 817.653 313.346 817.688 313.297C817.723 313.248 817.745 313.19 817.75 313.13C817.765 313.016 817.744 312.899 817.69 312.797C817.637 312.695 817.553 312.613 817.45 312.56C817.063 312.349 816.637 312.22 816.199 312.181C815.76 312.142 815.318 312.194 814.9 312.334C814.482 312.474 814.098 312.698 813.771 312.994C813.444 313.289 813.182 313.649 813 314.05C812.951 314.152 812.936 314.268 812.958 314.38C812.979 314.491 813.036 314.593 813.12 314.67C813.152 314.706 813.191 314.735 813.235 314.755C813.279 314.775 813.327 314.785 813.375 314.785C813.423 314.785 813.471 314.775 813.515 314.755C813.559 314.735 813.598 314.706 813.63 314.67C814.123 314.215 814.707 313.869 815.343 313.655C815.978 313.442 816.652 313.365 817.32 313.43C817.397 313.448 817.477 313.441 817.55 313.41V313.41Z" fill="#080435"/>
<path d="M814.45 318.85C814.54 319.94 815.25 320.76 816.04 320.7C816.83 320.64 817.39 319.7 817.3 318.61C817.21 317.52 816.5 316.7 815.71 316.76C814.92 316.82 814.35 317.76 814.45 318.85Z" fill="#080435"/>
<path d="M763 323.29C763 323.29 773.73 337.64 784.44 336.59C784.44 336.59 773.44 326.26 789.67 315.1C789.63 315.1 772.73 316 763 323.29Z" fill="#131F2D"/>
<path d="M779.55 329C780.375 329.218 781.245 329.192 782.055 328.925C782.865 328.658 783.581 328.162 784.115 327.497C784.649 326.832 784.979 326.027 785.064 325.178C785.149 324.329 784.987 323.474 784.596 322.716C784.205 321.957 783.603 321.329 782.862 320.906C782.121 320.483 781.274 320.284 780.422 320.333C779.571 320.383 778.752 320.678 778.064 321.183C777.377 321.688 776.851 322.382 776.55 323.18C776.184 324.35 776.294 325.616 776.856 326.706C777.417 327.795 778.385 328.619 779.55 329Z" fill="#FAA994"/>
<path d="M789.63 315.1C789.63 315.1 791.03 328.75 794.28 330.7C797.53 332.65 815.7 329.94 823.39 324.93C824.366 329.07 823.83 333.422 821.879 337.201C819.928 340.981 816.69 343.938 812.75 345.54C810.011 346.613 807.11 347.215 804.17 347.32V347.32C798.1 347.53 791.88 346.32 788.32 341.39C787.23 339.89 787.22 329.26 787.22 329.26C787.22 329.26 786.76 323.11 782.63 320.74C782.63 320.74 785.88 316.29 789.63 315.1Z" fill="#131F2D"/>
<path d="M820 330.68C815.541 332.822 810.767 334.234 805.86 334.86C805.86 334.86 808.43 341.58 815.74 338.59C820 336.85 820 330.68 820 330.68Z" fill="white"/>
<path d="M809.89 278.89C809.191 278.896 808.508 278.684 807.935 278.285C807.361 277.885 806.926 277.318 806.69 276.66L807.27 276.48C807.27 276.57 808.06 278.84 810.94 278.14L811.09 278.74C810.697 278.834 810.294 278.885 809.89 278.89V278.89Z" fill="#131F2D"/>
<path d="M809 299.29L808.86 299.02C811.073 297.777 813.169 296.334 815.12 294.71C817.91 292.35 821.12 288.76 820.65 285.11C820.4 283.11 819.8 281.89 818.82 281.36C817.25 280.49 814.95 281.57 812.91 282.52L812 282.94L811.88 282.66L812.78 282.24C814.88 281.24 817.26 280.15 818.97 281.09C820.04 281.68 820.69 282.98 820.97 285.09C821.36 288.09 819.41 291.51 815.33 294.96C813.358 296.595 811.239 298.045 809 299.29V299.29Z" fill="white"/>
<path d="M775.53 291.44V291.14C789.01 290.14 793.75 281.44 793.8 281.35L794.07 281.5C794 281.59 789.18 290.43 775.53 291.44Z" fill="white"/>
<path d="M805.44 368.2C805.44 368.2 815.69 364.2 818.67 366.49C821.65 368.78 820.45 380.49 815.67 381.87C810.89 383.25 800.86 371.34 805.44 368.2Z" fill="#D3CEFD"/>
<path d="M657.41 281.62C645.41 290.86 636.89 287.51 634.27 282.62C631.65 277.73 637.78 269.37 647.95 263.94C658.12 258.51 667.43 256.44 670.04 261.33C672.65 266.22 666.53 274.58 657.41 281.62Z" fill="#131F2D"/>
<path d="M836.45 499.22C836.288 500.102 835.783 500.883 835.045 501.392C834.307 501.902 833.397 502.097 832.515 501.935C831.633 501.773 830.852 501.268 830.343 500.53C829.834 499.792 829.638 498.882 829.8 498C830.14 496.16 831.53 494.64 833.36 495C833.853 495.044 834.331 495.192 834.763 495.435C835.194 495.679 835.568 496.011 835.86 496.41C836.153 496.81 836.357 497.267 836.459 497.752C836.56 498.236 836.557 498.737 836.45 499.22V499.22Z" fill="#131F2D"/>
<path d="M833.06 469C832.897 469.882 832.39 470.663 831.651 471.171C830.912 471.679 830.002 471.873 829.12 471.71C828.238 471.547 827.457 471.04 826.949 470.301C826.441 469.562 826.247 468.652 826.41 467.77C826.75 465.93 828.14 464.41 829.97 464.77C830.464 464.813 830.943 464.962 831.375 465.206C831.807 465.45 832.182 465.783 832.475 466.184C832.767 466.584 832.971 467.043 833.072 467.529C833.173 468.014 833.169 468.516 833.06 469V469Z" fill="#131F2D"/>
<path d="M828.88 434.76C828.717 435.642 828.21 436.423 827.471 436.931C826.732 437.439 825.822 437.633 824.94 437.47C824.058 437.307 823.277 436.8 822.769 436.061C822.261 435.322 822.067 434.412 822.23 433.53C822.57 431.69 823.95 430.17 825.79 430.53C826.284 430.573 826.763 430.722 827.195 430.966C827.627 431.21 828.002 431.543 828.295 431.944C828.587 432.344 828.791 432.803 828.892 433.289C828.993 433.774 828.989 434.276 828.88 434.76V434.76Z" fill="#131F2D"/>
<path d="M811.56 839.67C811.56 839.67 811.24 851.97 820.09 855.92C828.94 859.87 854.92 864.39 844.73 871.76C838.88 876 812.6 871.66 805.14 871.26C797.68 870.86 790.51 873.48 785.21 868.59C779.37 863.2 786.82 838.35 786.82 838.35C786.82 838.35 793.09 841.78 798.89 841.95C807.25 842.2 811.56 839.67 811.56 839.67Z" fill="#131F2D"/>
<path d="M857.17 535.1C885.11 541.57 890.17 544.62 888.38 561.33C884.971 593.067 879.658 624.57 872.47 655.67C855.8 726.21 836.78 797.16 827.47 831.17C824.15 843.33 812.47 851.73 799.08 851.51L791.9 851.4C777.47 851.16 766.39 839.14 768.16 825.65L798.66 593.85L800.86 544.79L857.17 535.1Z" fill="#6E6BFF"/>
<path d="M701.76 839.67C701.76 839.67 701.44 851.97 710.29 855.92C719.14 859.87 745.12 864.39 734.93 871.76C729.08 876 702.8 871.66 695.34 871.26C687.88 870.86 680.71 873.48 675.4 868.59C669.57 863.2 677.02 838.35 677.02 838.35C677.02 838.35 683.29 841.78 689.09 841.95C697.45 842.2 701.76 839.67 701.76 839.67Z" fill="#131F2D"/>
<path d="M857.17 535.1L724.32 832.1C719.45 844.31 706.83 852.19 692.96 851.66L686.96 851.44C672.69 850.9 662.43 838.18 665.74 825.11L741.14 544.76C742.91 538.5 796.74 523.51 857.17 535.1Z" fill="#6E6BFF"/>
<path d="M785.25 696.56H785.04C784.869 696.503 784.728 696.38 784.647 696.219C784.566 696.058 784.553 695.871 784.61 695.7L812 610.92C812.83 608.92 813.62 606.92 814.45 604.75C819.38 591.98 825.52 576.1 843.05 565.19C843.126 565.142 843.211 565.11 843.299 565.096C843.388 565.081 843.478 565.084 843.566 565.104C843.653 565.125 843.736 565.162 843.809 565.215C843.881 565.267 843.943 565.334 843.99 565.41C844.037 565.485 844.069 565.569 844.084 565.657C844.099 565.745 844.096 565.835 844.075 565.921C844.055 566.008 844.017 566.089 843.965 566.161C843.912 566.233 843.846 566.294 843.77 566.34C826.63 577.02 820.58 592.66 815.77 605.24C814.93 607.4 814.14 609.44 813.33 611.39L785.91 696.09C785.866 696.23 785.778 696.351 785.659 696.436C785.54 696.521 785.396 696.565 785.25 696.56V696.56Z" fill="#020202"/>
<path d="M660.41 262.3C661.23 256.82 660.41 245.63 661.16 240.14C661.47 237.76 661.98 229.68 659.67 229.02C657.67 228.45 654.23 234.64 652.96 237.79C644.21 220.14 626.15 200.72 641.96 236.9H641.91C640.31 233.9 629.35 211.49 625.03 215.35C621.87 218.18 631.46 236.35 634.03 241.29L633.9 241.38C630.9 236.56 622.45 221.51 619.3 224.07C615.15 227.43 626.62 246.47 626.62 246.47C626.62 246.47 617.5 230.47 614.48 235.84C612.78 238.84 618.48 248.2 622.12 253.95C622.89 255.16 623.56 256.21 624.05 257.01C624.418 257.612 624.854 258.169 625.35 258.67C628.965 263.814 633.155 268.528 637.84 272.72C639.638 274.691 642.054 275.991 644.69 276.405C647.325 276.82 650.024 276.324 652.34 275C657.87 272.09 660.05 264.67 660.41 262.3Z" fill="#FAA994"/>
<path d="M809.17 380.48C806.09 395.42 789.09 453.8 707.54 484.06C702.298 485.987 697.607 489.17 693.88 493.33L679.08 509.93C678.459 510.622 678.011 511.451 677.772 512.35C677.533 513.248 677.51 514.191 677.705 515.1C677.9 516.009 678.307 516.859 678.894 517.58C679.481 518.302 680.23 518.874 681.08 519.25L702.81 528.7C710.246 531.96 718.643 532.271 726.3 529.57C752.76 520.18 820.75 471.75 820.73 375.86C820.73 371.76 817.37 374.94 813.4 375.97C812.346 376.255 811.392 376.828 810.644 377.624C809.897 378.421 809.387 379.41 809.17 380.48V380.48Z" fill="#FD1ED4"/>
<path d="M811.4 365C811.4 365 797.34 361.17 794.31 356.52C791.28 351.87 777.91 364.12 778.41 367.44C778.91 370.76 805.83 387.44 807.33 384.95C808.83 382.46 815 368 811.4 365Z" fill="#221BB2"/>
<path d="M811.4 365C811.4 365 813.07 359.76 811.88 357.07C811.88 357.07 811.05 354.69 813.15 354.71C815.25 354.73 827.2 361.81 828.38 364.16C829.56 366.51 830.57 377.85 826.96 378.96C823.35 380.07 813.58 368.52 812.45 367.39C812.124 367.082 811.863 366.712 811.682 366.301C811.502 365.891 811.406 365.448 811.4 365V365Z" fill="#221BB2"/>
<path d="M815.24 382.15C812.32 382.15 809.73 379.83 809.61 379.72L809.95 379.35C809.95 379.35 812.79 381.88 815.67 381.62C818.55 381.36 820.52 375.83 820.54 375.77L821.01 375.94C820.93 376.18 818.87 381.84 815.72 382.12L815.24 382.15Z" fill="#131F2D"/>
<path d="M1051.68 314.76H1051.62C1051.58 314.751 1051.54 314.733 1051.51 314.709C1051.48 314.685 1051.45 314.655 1051.43 314.62C1049.86 311.826 1049.39 308.548 1050.1 305.425C1050.82 302.302 1052.68 299.558 1055.31 297.73L1065.45 290.73C1068.49 288.632 1071.08 285.949 1073.08 282.838C1075.07 279.727 1076.42 276.25 1077.06 272.61C1077.72 268.956 1077.65 265.209 1076.85 261.584C1076.06 257.958 1074.55 254.524 1072.43 251.48L1061.64 235.91C1059.49 232.822 1056.42 230.485 1052.88 229.23C1049.33 227.974 1045.48 227.862 1041.86 228.91C1031.67 231.793 1020.96 232.386 1010.51 230.647C1000.06 228.908 990.121 224.879 981.41 218.85C980.02 217.85 978.62 216.85 977.25 215.71C958.49 218.02 939.77 217.33 923.1 213.71C906.43 210.09 892.54 203.77 882.77 195.41C873.92 187.85 868.89 178.91 868.21 169.56C867.21 155.63 874.21 144.91 886.83 140.9C886.866 140.888 886.904 140.883 886.942 140.886C886.98 140.889 887.017 140.9 887.051 140.917C887.085 140.935 887.114 140.96 887.138 140.989C887.162 141.019 887.18 141.053 887.19 141.09C887.203 141.126 887.208 141.164 887.206 141.202C887.204 141.241 887.194 141.278 887.177 141.312C887.16 141.347 887.137 141.378 887.108 141.403C887.08 141.428 887.046 141.448 887.01 141.46C874.61 145.38 867.8 155.87 868.79 169.52C869.45 178.71 874.42 187.52 883.15 194.97C892.85 203.26 906.71 209.55 923.23 213.14C939.75 216.73 958.56 217.45 977.3 215.14C977.338 215.136 977.376 215.14 977.413 215.152C977.449 215.165 977.482 215.184 977.51 215.21C978.91 216.33 980.33 217.4 981.74 218.39C990.383 224.382 1000.25 228.386 1010.62 230.115C1020.99 231.844 1031.62 231.255 1041.74 228.39C1045.48 227.308 1049.46 227.427 1053.12 228.73C1056.78 230.033 1059.95 232.453 1062.16 235.65L1072.94 251.22C1075.11 254.324 1076.65 257.827 1077.46 261.527C1078.27 265.228 1078.34 269.052 1077.67 272.78C1077.02 276.493 1075.64 280.041 1073.61 283.215C1071.58 286.39 1068.93 289.128 1065.83 291.27L1055.68 298.27C1053.21 299.982 1051.46 302.54 1050.75 305.459C1050.04 308.378 1050.42 311.456 1051.83 314.11L1156.83 240.65C1154.8 238.589 1152.11 237.308 1149.23 237.03C1146.35 236.752 1143.47 237.496 1141.08 239.13L1129.14 247.38C1122.84 251.686 1115.1 253.32 1107.6 251.923C1100.1 250.527 1093.46 246.214 1089.14 239.93L1078.37 224.38C1077.06 222.498 1076.12 220.389 1075.59 218.16C1075.57 218.086 1075.58 218.007 1075.62 217.942C1075.66 217.876 1075.73 217.829 1075.8 217.81C1075.88 217.795 1075.95 217.809 1076.02 217.85C1076.08 217.891 1076.13 217.955 1076.15 218.03C1076.67 220.179 1077.59 222.213 1078.85 224.03L1089.62 239.58C1093.85 245.738 1100.36 249.965 1107.71 251.334C1115.05 252.702 1122.64 251.1 1128.81 246.88L1140.75 238.63C1143.3 236.886 1146.39 236.113 1149.46 236.452C1152.53 236.792 1155.38 238.221 1157.49 240.48C1157.52 240.511 1157.54 240.547 1157.55 240.587C1157.57 240.626 1157.57 240.668 1157.57 240.71C1157.56 240.751 1157.55 240.79 1157.53 240.824C1157.5 240.859 1157.48 240.888 1157.44 240.91L1051.84 314.75C1051.79 314.769 1051.73 314.773 1051.68 314.76ZM950.36 208.47C933.86 206.85 917.6 202.2 905.73 195.69C892.04 188.19 884.52 178.69 883.97 168.11C883.967 168.072 883.972 168.034 883.984 167.997C883.996 167.961 884.016 167.928 884.041 167.899C884.066 167.87 884.096 167.846 884.131 167.829C884.165 167.813 884.202 167.802 884.24 167.8C884.318 167.797 884.394 167.825 884.452 167.877C884.51 167.929 884.545 168.002 884.55 168.08C885.09 178.41 892.55 187.78 906.01 195.19C917.81 201.65 934.01 206.28 950.42 207.89C950.496 207.9 950.565 207.939 950.614 207.998C950.662 208.058 950.686 208.133 950.68 208.21C950.676 208.248 950.665 208.285 950.647 208.319C950.629 208.353 950.604 208.383 950.574 208.407C950.545 208.431 950.51 208.449 950.474 208.46C950.437 208.471 950.398 208.474 950.36 208.47V208.47ZM905.06 139.9C905.003 139.897 904.948 139.88 904.9 139.85C901.9 137.76 898.9 135.85 896 134.07C893.71 132.66 891.33 131.26 888.72 129.78L880.72 125.29L875.54 128.7C875.27 128.89 872.83 130.51 871.65 128.83L867 122.12C866.613 121.474 866.475 120.71 866.61 119.97C866.684 119.659 866.825 119.367 867.024 119.117C867.222 118.866 867.474 118.662 867.76 118.52L1038.75 0.139936C1039.52 -0.320064 1040.81 0.449936 1041.75 1.13994C1044.75 3.42994 1048.57 8.44994 1047.75 11.1399C1047.6 11.6299 1046.52 12.8799 1039.35 18.1399L1040.35 24.7299C1040.79 27.6299 1041.29 30.4699 1041.83 33.1899C1042.3 35.7099 1042.83 38.2799 1043.46 40.8499C1044.5 35.7373 1046.68 30.9246 1049.83 26.7699C1057.95 16.2499 1070.4 13.3899 1083.14 19.1199C1091.69 22.9599 1098.36 30.7599 1102.43 41.6599C1106.92 53.6599 1108.07 68.9799 1105.76 85.8299C1105.75 85.9052 1105.71 85.9735 1105.65 86.0203C1105.59 86.067 1105.52 86.0885 1105.44 86.0799C1105.4 86.075 1105.36 86.0626 1105.33 86.0432C1105.3 86.0239 1105.27 85.9981 1105.25 85.9674C1105.22 85.9367 1105.21 85.9016 1105.2 85.8643C1105.19 85.8269 1105.18 85.7881 1105.19 85.7499C1107.48 68.9999 1106.34 53.8299 1101.88 41.8699C1097.88 31.1099 1091.31 23.4299 1082.88 19.6499C1070.4 14.0399 1058.21 16.8299 1050.27 27.1199C1046.91 31.5656 1044.67 36.7609 1043.76 42.2599C1043.75 42.3254 1043.72 42.3854 1043.67 42.4293C1043.62 42.4732 1043.56 42.4982 1043.49 42.4999C1043.42 42.5064 1043.35 42.4875 1043.3 42.447C1043.24 42.4064 1043.2 42.347 1043.19 42.2799C1042.45 39.2799 1041.79 36.2799 1041.19 33.2799C1040.65 30.5599 1040.19 27.6999 1039.7 24.7999L1038.7 18.0399C1038.69 17.9876 1038.69 17.9331 1038.71 17.8832C1038.73 17.8333 1038.77 17.7904 1038.81 17.7599C1045.81 12.5799 1047.04 11.2499 1047.14 10.9299C1047.83 8.52994 1044.08 3.70994 1041.29 1.56994C1039.99 0.569937 1039.23 0.389936 1038.96 0.569936L868.06 119C867.843 119.108 867.651 119.261 867.498 119.449C867.344 119.637 867.233 119.856 867.17 120.09C867.07 120.672 867.18 121.271 867.48 121.78L872.13 128.49C872.99 129.72 875.13 128.27 875.21 128.21L880.55 124.7C880.594 124.67 880.647 124.654 880.7 124.654C880.753 124.654 880.806 124.67 880.85 124.7L889.01 129.28C891.63 130.75 894.01 132.16 896.3 133.57C899.18 135.32 902.18 137.28 905.23 139.37C905.292 139.414 905.334 139.481 905.347 139.556C905.36 139.63 905.343 139.707 905.3 139.77C905.275 139.811 905.24 139.845 905.198 139.867C905.156 139.89 905.108 139.902 905.06 139.9V139.9ZM1085.06 128.31C1085.01 128.31 1084.96 128.298 1084.92 128.275C1084.88 128.252 1084.84 128.22 1084.81 128.18C1082.88 125.12 1076.46 115.01 1075.05 113.4C1069.89 105.956 1065.21 98.1868 1061.05 90.1399C1059.85 87.8299 1058.64 85.3599 1057.35 82.6199C1056.57 80.9399 1055.76 79.1599 1054.97 77.3299C1054.94 77.2704 1054.93 77.2025 1054.95 77.1385C1054.97 77.0744 1055.01 77.0183 1055.06 76.9799C1055.11 76.9394 1055.17 76.9173 1055.24 76.9173C1055.31 76.9173 1055.37 76.9394 1055.42 76.9799C1057.28 78.5739 1059.42 79.7961 1061.74 80.5799C1071.11 83.6499 1078.93 77.1199 1079.26 76.8399C1080.54 75.7599 1080.61 73.5599 1079.43 71.9399C1079.15 71.5312 1078.78 71.1846 1078.36 70.9215C1077.94 70.6584 1077.47 70.4843 1076.98 70.4099C1076.64 70.362 1076.28 70.3871 1075.95 70.4836C1075.62 70.58 1075.31 70.7458 1075.04 70.9699C1074.78 71.1799 1068.87 75.9699 1062.55 73.8299C1058.75 72.5699 1055.37 68.9499 1052.49 63.0699C1051.02 60.0699 1050.74 55.2499 1051.75 50.2599C1052.65 45.2357 1054.93 40.5598 1058.33 36.7499C1061.73 33.1699 1067.64 29.6899 1076.48 33.4499C1083.13 36.2799 1088.19 41.9599 1091.48 50.3199C1095.39 60.1299 1096.73 73.1599 1095.36 88.0099C1094.1 101.826 1090.7 115.361 1085.28 128.13C1085.26 128.178 1085.23 128.22 1085.19 128.25C1085.14 128.281 1085.09 128.298 1085.04 128.3L1085.06 128.31ZM1056 78.1699C1056.64 79.6199 1057.28 81.0299 1057.91 82.3799C1059.19 85.1099 1060.4 87.5699 1061.59 89.8799C1065.73 97.8755 1070.38 105.598 1075.51 113C1076.84 114.51 1082.39 123.2 1085.02 127.36C1094.48 105.3 1099.55 71.9899 1091.02 50.4999C1087.74 42.2899 1082.79 36.7199 1076.3 33.9499C1067.76 30.3199 1062.06 33.6699 1058.79 37.1199C1052.11 44.1199 1050.19 56.9199 1053.06 62.7799C1055.93 68.6399 1059.13 72.0399 1062.77 73.2499C1068.77 75.2499 1074.47 70.6899 1074.71 70.4999C1075.04 70.2241 1075.42 70.0194 1075.83 69.8988C1076.24 69.7783 1076.67 69.7446 1077.09 69.7999C1077.66 69.8856 1078.21 70.0867 1078.7 70.3911C1079.19 70.6954 1079.61 71.0966 1079.94 71.5699C1081.3 73.4299 1081.18 75.9799 1079.68 77.2499C1079.34 77.5399 1071.27 84.2499 1061.6 81.0999C1059.59 80.4364 1057.69 79.4466 1056 78.1699V78.1699Z" fill="#131F2D"/>
<path d="M1036.17 6.80997L865.17 125.21C863.4 126.21 864.34 128.13 864.5 128.37L869.12 135.03C870.12 136.46 872.35 134.98 872.6 134.81C872.6 134.81 1043.21 22.61 1044.73 17.42C1045.77 13.86 1037.94 5.73997 1036.17 6.80997Z" fill="#221BB2"/>
<path d="M1035.26 17.46L1035.89 21.76L1037.29 31.12C1037.71 33.92 1038.19 36.74 1038.74 39.54C1039.39 43.06 1040.16 46.54 1041.05 50.05C1044.27 63.2463 1048.78 76.0921 1054.53 88.4C1055.7 90.91 1056.91 93.4 1058.18 95.86C1062.28 103.821 1066.9 111.504 1072 118.86C1073.72 120.81 1082.51 134.86 1082.51 134.86C1082.93 135.75 1083.35 136.67 1083.72 137.56C1085.31 141.211 1086.58 144.996 1087.5 148.87C1089.93 159.013 1090.1 169.565 1088 179.782C1085.9 189.998 1081.59 199.631 1075.37 208C1073.08 211.042 1071.8 214.728 1071.72 218.536C1071.63 222.344 1072.75 226.082 1074.91 229.22L1085.59 244.64C1087.71 247.703 1090.41 250.32 1093.54 252.339C1096.67 254.358 1100.17 255.74 1103.83 256.407C1107.5 257.074 1111.26 257.012 1114.9 256.225C1118.54 255.438 1121.99 253.941 1125.05 251.82L1136.99 243.58C1139.46 241.854 1142.47 241.078 1145.47 241.396C1148.47 241.714 1151.25 243.104 1153.3 245.31C1153.3 245.31 1144.16 257.37 1102.79 287.31C1052.68 323.52 1047.7 319.2 1047.7 319.2C1046.19 316.473 1045.74 313.281 1046.45 310.244C1047.16 307.207 1048.97 304.543 1051.54 302.77L1061.69 295.77C1074.56 286.85 1071.46 261.72 1058.17 240.87C1053.7 233.87 1045.66 231.67 1038.17 233.87C1028.07 236.77 1017.45 237.402 1007.08 235.72C996.708 234.038 986.836 230.084 978.17 224.14C974.905 221.871 971.829 219.343 968.97 216.58C968.38 215.98 967.8 215.4 967.22 214.8C967.22 214.8 957.22 201.63 955.98 199.36C950.919 192.06 945.394 185.092 939.44 178.5C937.61 176.45 935.74 174.5 933.84 172.5C924.194 162.605 913.585 153.698 902.17 145.91C899.27 143.91 896.31 142.01 893.3 140.18C890.907 138.72 888.49 137.31 886.05 135.95L877.78 131.34L874 129.11L896.6 113.48L1012.66 33.11L1035.26 17.46Z" fill="#221BB2"/>
<path d="M977.13 219.87C976.681 220.292 976.111 220.561 975.5 220.64C956.24 223.26 937.02 222.72 919.92 219.07C903.41 215.55 889.57 209.33 879.92 201.07C871.18 193.64 866.23 184.83 865.6 175.61C864.66 161.9 871.6 151.33 884.07 147.34C896.75 143.29 911.79 147.34 921.51 157.41C927.68 163.82 930.7 170.18 930.51 176.33C930.14 186.27 921.18 191.48 920.8 191.7C919.915 192.082 918.922 192.131 918.003 191.839C917.084 191.547 916.302 190.933 915.8 190.11C914.61 188.34 914.93 186.17 916.51 185.26C916.67 185.17 923.14 181.26 923.36 174.79C923.49 170.89 921.3 166.57 916.85 161.96C909.3 154.13 880.3 152.62 881.35 174.17C882.75 203.17 937.42 218.36 973.45 213.46C974.441 213.386 975.428 213.654 976.246 214.22C977.063 214.786 977.661 215.616 977.94 216.57C978.128 217.141 978.152 217.753 978.009 218.336C977.866 218.92 977.561 219.452 977.13 219.87V219.87Z" fill="#221BB2"/>
<path d="M1083.41 145.55C1083.96 145.276 1084.41 144.831 1084.69 144.28C1093.77 127.1 1099.85 108.86 1102.3 91.5398C1104.65 74.8298 1103.57 59.6898 1099.15 47.7698C1095.15 37.0198 1088.6 29.3498 1080.15 25.5898C1067.59 19.9998 1055.29 22.8598 1047.25 33.2398C1039.21 43.6198 1037.73 59.2398 1043.86 71.8498C1047.76 79.8498 1052.7 84.8498 1058.55 86.7598C1068.01 89.8298 1075.98 83.2098 1076.31 82.9198C1076.99 82.2271 1077.39 81.3068 1077.44 80.3358C1077.48 79.3649 1077.17 78.4118 1076.55 77.6599C1075.29 75.9399 1073.14 75.4899 1071.75 76.6599C1071.61 76.7799 1065.75 81.5298 1059.56 79.4998C1055.86 78.2898 1052.56 74.7499 1049.75 68.9799C1044.98 59.1999 1053.52 31.4498 1073.41 39.8298C1100.13 51.0898 1095.67 107.66 1078.69 139.83C1078.28 140.736 1078.19 141.756 1078.45 142.719C1078.7 143.681 1079.27 144.529 1080.07 145.12C1080.53 145.495 1081.09 145.734 1081.68 145.81C1082.27 145.886 1082.87 145.796 1083.41 145.55V145.55Z" fill="#221BB2"/>
<path d="M973.82 95.7899L996.58 112.47C997.786 113.355 999.223 113.87 1000.72 113.952C1002.21 114.033 1003.7 113.678 1004.99 112.93L1023.18 102.41C1024.26 101.756 1025.52 101.458 1026.77 101.559C1028.03 101.66 1029.22 102.155 1030.18 102.973C1031.14 103.792 1031.82 104.892 1032.12 106.117C1032.42 107.343 1032.33 108.631 1031.85 109.8L1025.61 126.09C1025.02 127.634 1024.94 129.326 1025.39 130.918C1025.83 132.509 1026.78 133.916 1028.08 134.93L1048.71 150.93C1049.68 151.682 1050.39 152.712 1050.76 153.882C1051.12 155.052 1051.12 156.306 1050.75 157.475C1050.38 158.643 1049.66 159.671 1048.69 160.419C1047.72 161.167 1046.54 161.6 1045.32 161.66L1018.46 163C1017.03 163.067 1015.65 163.531 1014.47 164.34C1013.29 165.149 1012.37 166.271 1011.79 167.58L1001.84 190.14C1001.41 191.132 1000.69 191.972 999.776 192.549C998.862 193.125 997.794 193.413 996.714 193.373C995.633 193.333 994.59 192.967 993.72 192.324C992.85 191.682 992.195 190.791 991.84 189.77L982.84 164.42C982.321 162.946 981.363 161.665 980.096 160.75C978.829 159.835 977.313 159.329 975.75 159.3L954.55 158.85C953.44 158.823 952.367 158.45 951.481 157.782C950.595 157.114 949.94 156.185 949.609 155.125C949.278 154.066 949.287 152.929 949.635 151.876C949.983 150.822 950.653 149.904 951.55 149.25L969.78 135.89C970.932 135.039 971.823 133.883 972.353 132.552C972.883 131.222 973.031 129.77 972.78 128.36L967.78 99.5399C967.642 98.7853 967.735 98.0066 968.046 97.3053C968.356 96.604 968.871 96.0125 969.523 95.6078C970.175 95.2032 970.933 95.0042 971.7 95.0366C972.466 95.0691 973.205 95.3316 973.82 95.7899Z" fill="#D3CEFD"/>
<path d="M1002.41 196C1001.32 196.008 1000.26 195.697 999.345 195.105C998.433 194.513 997.715 193.666 997.28 192.67L986.18 168.16C985.56 166.796 984.543 165.651 983.262 164.873C981.981 164.096 980.496 163.722 979 163.8L957.84 165.13C956.673 165.195 955.514 164.894 954.527 164.269C953.539 163.644 952.771 162.726 952.33 161.643C951.89 160.56 951.798 159.367 952.069 158.23C952.34 157.092 952.959 156.068 953.84 155.3L970.89 140.47C971.937 139.569 972.709 138.391 973.118 137.072C973.526 135.753 973.555 134.345 973.2 133.01L965.83 104.7C965.622 103.907 965.656 103.07 965.928 102.297C966.2 101.524 966.698 100.85 967.356 100.363C968.015 99.8751 968.805 99.5961 969.624 99.5617C970.442 99.5273 971.253 99.7392 971.95 100.17L996 114.91C997.228 115.659 998.648 116.036 1000.09 115.993C1001.52 115.951 1002.92 115.491 1004.1 114.67L1021.35 102.67C1022.43 101.92 1023.71 101.524 1025.02 101.536C1026.34 101.547 1027.61 101.966 1028.68 102.734C1029.74 103.502 1030.54 104.582 1030.97 105.825C1031.39 107.067 1031.42 108.411 1031.05 109.67L1026.19 126.42C1025.74 127.948 1025.8 129.579 1026.35 131.072C1026.91 132.564 1027.93 133.837 1029.27 134.7L1051.16 148.95C1052.23 149.652 1053.07 150.666 1053.55 151.856C1054.03 153.047 1054.14 154.355 1053.85 155.607C1053.57 156.859 1052.91 157.994 1051.96 158.86C1051.01 159.725 1049.82 160.28 1048.55 160.45L1021.89 163.97C1020.53 164.154 1019.25 164.713 1018.19 165.583C1017.13 166.454 1016.33 167.602 1015.89 168.9L1007.89 192.21C1007.53 193.287 1006.85 194.229 1005.94 194.908C1005.03 195.588 1003.94 195.972 1002.8 196.01L1002.41 196ZM979.41 163.22C980.948 163.219 982.454 163.663 983.747 164.496C985.04 165.33 986.066 166.518 986.7 167.92L997.8 192.44C998.221 193.363 998.909 194.139 999.775 194.667C1000.64 195.196 1001.65 195.453 1002.66 195.406C1003.67 195.359 1004.65 195.009 1005.46 194.402C1006.27 193.795 1006.89 192.958 1007.22 192L1015.22 168.7C1015.7 167.293 1016.56 166.048 1017.71 165.108C1018.86 164.167 1020.26 163.568 1021.73 163.38L1048.39 159.86C1049.55 159.71 1050.63 159.207 1051.49 158.421C1052.36 157.635 1052.96 156.603 1053.22 155.464C1053.47 154.325 1053.38 153.135 1052.93 152.054C1052.49 150.973 1051.73 150.054 1050.75 149.42L1028.86 135.17C1027.42 134.233 1026.33 132.859 1025.73 131.251C1025.14 129.643 1025.07 127.887 1025.55 126.24L1030.4 109.49C1030.73 108.348 1030.7 107.131 1030.31 106.007C1029.92 104.884 1029.2 103.908 1028.23 103.215C1027.26 102.522 1026.11 102.145 1024.92 102.137C1023.73 102.129 1022.57 102.49 1021.59 103.17L1004.34 115.17C1003.07 116.053 1001.56 116.547 1000.01 116.591C998.462 116.636 996.933 116.229 995.61 115.42L971.54 100.68C970.94 100.312 970.243 100.132 969.54 100.163C968.837 100.194 968.159 100.435 967.594 100.854C967.028 101.274 966.601 101.852 966.367 102.516C966.133 103.18 966.103 103.899 966.28 104.58L973.65 132.88C974.015 134.313 973.976 135.82 973.536 137.232C973.097 138.644 972.274 139.907 971.16 140.88L954.11 155.71C953.3 156.392 952.727 157.313 952.475 158.341C952.222 159.369 952.302 160.451 952.703 161.431C953.105 162.411 953.807 163.238 954.708 163.793C955.61 164.348 956.665 164.602 957.72 164.52L978.88 163.2L979.41 163.22Z" fill="#D3CEFD"/>
<path d="M921.49 196.21C921.49 196.21 914.42 192.4 912.33 199.29C909.67 208.05 913.09 214.56 916.33 215.06C919.06 215.49 920.56 204.81 920.56 204.81C920.56 204.81 919.72 220.49 924.56 219.72C929.4 218.95 929.1 204.81 929.1 204.81C929.1 204.81 929.83 219.72 934.37 219.72C938.91 219.72 938.12 205.49 938.12 205.49C938.12 205.49 937.27 219.89 942.46 219.12C944.76 218.78 947.03 209.3 946.99 205C946.94 200.95 943.76 200 939.12 199.76C938.15 198.843 936.95 198.206 935.647 197.915C934.345 197.625 932.988 197.692 931.72 198.11C930.65 198.47 928.88 196.4 928.04 196.23C925.878 195.805 923.655 195.798 921.49 196.21V196.21Z" fill="#FAA994"/>
<path d="M399 963C399 963 389.47 981.63 392.63 988.43C395.79 995.23 408.84 1010.7 398.87 1010.5C393.14 1010.38 379.87 994.9 375.61 991.03C371.35 987.16 365.73 985.39 365.18 979.69C364.57 973.42 391.99 950.07 391.99 950.07C391.99 950.07 394.28 949.13 397.64 952.07C402.51 956.28 399 963 399 963Z" fill="#131F2D"/>
<path d="M513.23 750.5C513.23 750.5 521.41 879.04 419.33 962.31C412.26 968.08 401.28 975.41 393.74 970.31L386.36 965.39C378.03 959.71 372.6 947.69 383.99 934.39C409.52 904.7 447.45 816.39 440.2 740.14L513.23 750.5Z" fill="#D3CEFD"/>
<path d="M574.93 734.37C543.42 746.37 442.69 741.59 440.2 740.14C436.01 737.72 436.02 734.45 436.02 734.45L501.93 709L552.31 710.24L567.79 713.54L578.71 730.41C578.71 730.41 578.71 732.93 574.93 734.37Z" fill="#131F2D"/>
<path d="M651.16 466.53C650.64 461.83 651.73 452.11 651.31 447.39C651.12 445.34 650.97 438.39 653 437.71C654.76 437.14 657.51 442.38 658.5 445.06C666.73 429.47 683.08 412.06 668.09 443.89C669.58 441.23 679.9 421.45 683.5 424.64C686.14 426.97 677.18 443.02 674.76 447.41L674.87 447.48C677.69 443.2 685.52 429.88 688.16 431.97C691.64 434.73 681 451.62 681 451.62C681 451.62 689.49 437.42 691.91 441.99C693.28 444.57 688 452.83 684.64 457.93C683.93 459 683.31 459.93 682.85 460.65C682.514 461.187 682.118 461.683 681.67 462.13C678.342 466.719 674.541 470.945 670.33 474.74C670.33 474.74 665.03 480.89 657.66 477.23C653 474.91 651.39 468.57 651.16 466.53Z" fill="#FAA994"/>
<path d="M410.84 446.43C413.33 442.43 416.52 433.16 418.94 429.08C419.94 427.31 423.11 421.08 421.57 419.61C420.22 418.34 415.49 421.89 413.44 423.88C412.71 406.28 405.44 383.49 405.29 418.71H405.24C405.03 415.71 404.24 393.38 399.6 394.71C396.21 395.71 397.41 414.03 397.7 419.03H397.57C396.87 413.96 395.52 398.57 392.24 399.33C387.91 400.33 390.24 420.14 390.24 420.14C390.24 420.14 388.69 403.67 384.53 406.76C382.19 408.5 383.41 418.23 384.25 424.28C384.43 425.55 384.59 426.66 384.7 427.5C384.775 428.13 384.919 428.751 385.13 429.35C386.177 434.923 387.809 440.37 390 445.6C390 445.6 392.14 453.44 400.37 453.29C405.57 453.2 409.76 448.17 410.84 446.43Z" fill="#FAA994"/>
<path d="M528.26 992.24C528.26 992.24 528.79 1002.46 535.79 1005.16C542.79 1007.86 562.92 1009.92 555.6 1016.7C551.4 1020.59 531.07 1018.7 525.35 1018.85C519.63 1019 514.35 1021.65 509.96 1017.93C505.17 1013.84 509.29 992.75 509.29 992.75C509.29 992.75 514.29 995.19 518.73 994.95C525.12 994.61 528.26 992.24 528.26 992.24Z" fill="#131F2D"/>
<path d="M574.93 734.37C574.85 755.63 574.61 783.31 569.93 817C561 881.22 550.2 946 544.87 977C544.004 982.347 541.362 987.245 537.371 990.907C533.379 994.568 528.271 996.778 522.87 997.18L516.96 997.57C505.07 998.37 495.13 988.4 495.67 976.22L505 766.89L440.2 740.14C469.77 726.7 575 721.89 574.93 734.37Z" fill="#D3CEFD"/>
<path d="M501.49 836.87C501.44 836.49 496.39 798.74 492.6 785.23C488.81 771.72 471.43 760.23 471.25 760.09L471.74 759.34C471.92 759.46 489.62 771.28 493.46 784.99C497.3 798.7 502.33 836.37 502.38 836.75L501.49 836.87Z" fill="#131F2D"/>
<path d="M501.22 541.87L505.82 528.07L507.16 524.07L515.05 500.44L516.05 523.94L516.7 538L516.9 542.46C517.03 545.46 519.02 546.13 521.44 548.77C522.44 549.83 528.7 556.31 521.58 559.23C512.7 562.87 496.11 557.36 489.8 550.13C489.85 550.15 499.73 546.33 501.22 541.87Z" fill="#FAA994"/>
<path d="M521.76 529.877C532.92 524.337 536.917 509.672 530.687 497.122C524.457 484.572 510.359 478.889 499.199 484.429C488.039 489.968 484.042 504.633 490.272 517.184C496.502 529.734 510.6 535.417 521.76 529.877Z" fill="#FAA994"/>
<path d="M448.52 580C448.52 580 456.77 544.51 507.26 544.51C595.26 544.51 570.57 616.27 578.71 730.37C578.71 730.37 571.6 721.79 542.98 717.86C513.9 713.86 471.98 720.01 435.98 734.43C435.98 734.43 435.51 673.23 442.19 620.43C444.89 599.45 444.47 592 448.52 580Z" fill="#221BB2"/>
<path d="M406.4 441.74C409.074 441.559 411.73 442.284 413.94 443.799C416.151 445.315 417.785 447.531 418.58 450.09C435.02 502.86 464.46 541.33 507.26 544.53C512.43 544.91 440.57 636.02 440.82 633.39C443.06 610.13 435.94 581.26 424.03 564.17C401.58 531.95 384.22 494.79 382.12 452.47C381.991 450.061 382.814 447.698 384.412 445.891C386.009 444.084 388.254 442.977 390.66 442.81L406.4 441.74Z" fill="#221BB2"/>
<path d="M673.26 478.5C669.13 493.17 651.35 532.5 599.26 580.57C597.927 581.823 596.547 583.083 595.12 584.35C589.45 589.47 577.3 610.35 576.12 632.71L505.87 544.53C505.87 544.53 544.65 543.53 582.56 524.73C606 513.19 629 494.93 642.42 466C644.56 461.38 650.42 459.75 655.15 462.45L670 471C671.301 471.708 672.329 472.831 672.919 474.19C673.51 475.548 673.63 477.065 673.26 478.5V478.5Z" fill="#221BB2"/>
<path d="M583.34 603.67C560.85 597.14 550.97 579.87 546.65 566.53C543.815 557.604 542.463 548.273 542.65 538.91H543.38C543.214 548.193 544.565 557.442 547.38 566.29C551.66 579.45 561.38 596.48 583.57 602.92L583.34 603.67Z" fill="#DAEBE8"/>
<path d="M545.65 560.57L544.98 560.25C546.9 556.25 557.98 552.54 569.75 548.57C582.34 544.32 595.35 539.93 599.08 534.88C601.62 531.44 607.56 527.18 614.44 522.24C627.62 512.77 644 501 644.73 489C645.033 481.9 646.908 474.957 650.22 468.67C651.438 466.291 653.017 464.116 654.9 462.22L655.39 462.77C655.31 462.85 646.55 470.99 645.47 489.04C644.73 501.39 628.17 513.28 614.87 522.84C608.04 527.74 602.15 531.97 599.68 535.32C595.8 540.55 582.68 544.98 569.99 549.27C558.39 553.19 547.43 556.89 545.65 560.57Z" fill="#DAEBE8"/>
<path d="M553.14 579.64L552.46 579.35C555.18 572.93 566.39 568.46 578.27 563.72C590.15 558.98 602.74 553.96 606.43 546.79C609.54 540.73 617.43 533.69 625.7 526.23C637.34 515.78 649.37 504.98 650.65 495.23C652.091 484.841 655.755 474.886 661.39 466.04L662 466.46C656.427 475.208 652.808 485.055 651.39 495.33C650.07 505.33 637.93 516.23 626.19 526.76C617.93 534.18 610.13 541.18 607.08 547.11C603.27 554.53 590.7 559.55 578.54 564.39C566.82 569.08 555.74 573.5 553.14 579.64Z" fill="#DAEBE8"/>
<path d="M567.25 595.55L566.65 595.11C566.76 594.96 577.91 579.73 591.12 574.23C600.89 570.16 609.22 559.48 616.56 550.06C619.11 546.8 621.56 543.71 623.81 541.14C625.03 539.76 626.55 538.07 628.28 536.14C638.49 524.81 657.5 503.72 658.75 497.77C660.22 490.77 669.28 471.67 669.67 470.86L670.33 471.17C670.24 471.37 660.92 491.04 659.47 497.93C658.18 504.06 639.81 524.45 628.83 536.63C627.1 538.54 625.58 540.23 624.36 541.63C622.08 544.18 619.69 547.26 617.15 550.52C609.74 560.01 601.35 570.76 591.41 574.91C578.38 580.33 567.36 595.39 567.25 595.55Z" fill="#DAEBE8"/>
<path d="M543.05 545.24L542.9 544.52C543.28 544.44 581.18 536.52 587.3 529.32C589.76 526.43 596.85 521.94 605.05 516.73C617.28 508.97 632.51 499.32 633.91 493.36C636.1 484.07 642.13 466.78 650.84 460.88L651.25 461.49C642.73 467.27 636.8 484.35 634.63 493.49C633.16 499.74 618.44 509.08 605.44 517.32C597.63 522.27 590.25 526.96 587.86 529.76C581.58 537.17 544.62 544.91 543.05 545.24Z" fill="#DAEBE8"/>
<path d="M547.35 718.67C547.28 718.25 540.08 676.04 547.03 652.27C553.74 629.27 545.94 601.85 537.42 578.01C529.69 556.36 537.36 540.13 537.42 540.01L538.08 540.33C538 540.49 530.47 556.46 538.08 577.8C546.63 601.8 554.47 629.36 547.7 652.51C540.8 676.13 547.97 718.16 548.04 718.58L547.35 718.67Z" fill="#DAEBE8"/>
<path d="M564.37 722.91C564.3 722.7 557.37 701.84 561.03 671.91C562.8 657.42 561.43 643.06 560.11 629.17C558.72 614.59 557.41 600.82 560.39 589.9L561.1 590.1C558.16 600.89 559.46 614.59 560.84 629.1C562.17 643.03 563.54 657.43 561.77 672C558.13 701.79 565 722.5 565.07 722.71L564.37 722.91Z" fill="#DAEBE8"/>
<path d="M516.6 716.89C516.55 716.58 511.36 685.19 521.6 656.25C531.76 627.52 518.16 586.53 518.02 586.12L518.72 585.88C518.86 586.29 532.54 627.53 522.29 656.5C512.12 685.25 517.29 716.5 517.29 716.76L516.6 716.89Z" fill="#DAEBE8"/>
<path d="M494.67 718.71C494.56 718.34 483.67 681.25 489.44 659.28C495.19 637.49 492.11 614.67 492.08 614.44L492.81 614.34C492.81 614.57 495.94 637.53 490.16 659.47C484.42 681.24 495.27 718.13 495.38 718.47L494.67 718.71Z" fill="#DAEBE8"/>
<path d="M473.16 723.06L472.45 722.86C472.52 722.61 479.45 697.47 471.82 675.57C464.13 653.47 470.26 611.44 470.33 611.02L471.06 611.13C470.99 611.55 464.89 653.4 472.51 675.33C480.21 697.46 473.23 722.81 473.16 723.06Z" fill="#DAEBE8"/>
<path d="M454.82 727.9C451.25 721.82 451.71 710.59 452.24 697.58C452.49 691.58 452.74 685.45 452.62 679.29C452.26 659.95 457.73 608.96 457.79 608.45L458.52 608.53C458.52 609.04 453 659.98 453.36 679.28C453.48 685.46 453.22 691.64 452.98 697.61C452.45 710.5 451.98 721.61 455.46 727.53L454.82 727.9Z" fill="#DAEBE8"/>
<path d="M435.64 564.28C435.64 564.03 432.92 538.71 418.04 519.11C403.16 499.51 393.52 443.22 393.42 442.65L394.15 442.53C394.24 443.1 403.73 499.05 418.62 518.66C433.62 538.43 436.35 563.95 436.38 564.21L435.64 564.28Z" fill="#DAEBE8"/>
<path d="M450.42 560.47C450.36 560.13 444.35 525.77 428.72 503.24C413.09 480.71 402.34 442.19 402.23 441.81L402.94 441.61C403.05 441.99 413.69 480.27 429.33 502.82C444.97 525.37 451.08 560 451.14 560.35L450.42 560.47Z" fill="#DAEBE8"/>
<path d="M505.21 475.51C505.21 475.51 520.45 471.08 529.98 481.12C539.51 491.16 533.24 501.49 522.98 502.47C512.72 503.45 509.65 520.41 522.98 523.36C536.31 526.31 539.98 546.71 528.69 552.86C517.4 559.01 554.03 594.86 539.52 623.41C525.01 651.96 425.19 638.93 402.59 612.6C379.48 585.67 391.4 563.15 432.08 561.71C457.79 560.8 445.36 521.01 456.18 499.2C467 477.39 490.09 465.27 505.21 475.51Z" fill="#131F2D"/>
<path d="M384.64 590.18C383.224 585.844 383.116 581.187 384.331 576.791C385.545 572.395 388.029 568.453 391.47 565.46C399.47 558.15 411.28 555.84 420.75 559.73C428.39 562.86 434.75 563.21 439.67 560.73C444.31 558.43 447.59 553.73 449.44 546.8C450.38 543.3 449.73 537.33 448.99 530.42C447.13 513.12 444.59 489.42 462.99 476.82C488.65 459.22 505.57 474.82 505.74 474.94L504.74 476.01C504.09 475.39 488.49 461.13 463.85 478.01C446.19 490.12 448.68 513.31 450.5 530.24C451.26 537.3 451.91 543.39 450.91 547.16C448.97 554.43 445.33 559.56 440.37 562.03C435.05 564.67 428.28 564.33 420.24 561.03C411.24 557.35 400.13 559.54 392.51 566.49C389.279 569.296 386.947 572.993 385.805 577.117C384.663 581.242 384.762 585.612 386.09 589.68L384.64 590.18Z" fill="#131F2D"/>
<path d="M519.26 506.1C518.331 505.316 517.143 504.907 515.929 504.951C514.714 504.995 513.56 505.491 512.69 506.34C512.313 506.777 512.031 507.288 511.863 507.84C511.695 508.392 511.645 508.973 511.716 509.546C511.786 510.119 511.976 510.671 512.273 511.166C512.57 511.661 512.968 512.088 513.44 512.42C514.371 513.203 515.559 513.614 516.774 513.571C517.99 513.529 519.147 513.036 520.02 512.19C520.396 511.751 520.676 511.239 520.842 510.685C521.008 510.132 521.057 509.55 520.986 508.977C520.914 508.404 520.724 507.852 520.427 507.356C520.129 506.861 519.732 506.433 519.26 506.1V506.1Z" fill="#FAA994"/>
<path d="M516.6 513.85C515.829 513.824 515.072 513.631 514.382 513.286C513.692 512.941 513.084 512.451 512.6 511.85C512.572 511.82 512.556 511.781 512.556 511.74C512.556 511.699 512.572 511.66 512.6 511.63C512.631 511.604 512.67 511.59 512.71 511.59C512.75 511.59 512.789 511.604 512.82 511.63C515.65 514.72 518.24 513.17 518.26 513.15C518.296 513.128 518.339 513.12 518.38 513.13C518.421 513.139 518.457 513.164 518.48 513.2C518.505 513.229 518.519 513.266 518.519 513.305C518.519 513.344 518.505 513.381 518.48 513.41C517.9 513.713 517.254 513.865 516.6 513.85Z" fill="#131F2D"/>
<path d="M1026.51 673.38C1026.51 673.38 1023.75 721.77 1036.7 815.09C1046.05 882.47 1057.4 950.41 1062.99 982.99C1063.9 988.594 1066.67 993.729 1070.85 997.567C1075.03 1001.41 1080.39 1003.72 1086.05 1004.15L1092.25 1004.57C1104.73 1005.41 1115.16 994.95 1114.59 982.17L1104.82 762.53L1102.9 690.28L1026.51 673.38Z" fill="#221BB2"/>
<path d="M962.69 726.55C995.69 739.14 1057.35 721.36 1104.03 732.62L1104.72 719.31L1039.27 699.93L986.42 701.22L970.18 704.69L958.72 722.38C958.72 722.38 958.72 725.05 962.69 726.55Z" fill="#131F2D"/>
<path d="M882.72 445.59C883.26 440.65 882.12 430.46 882.57 425.5C882.76 423.35 882.92 416.03 880.79 415.35C878.95 414.75 876.06 420.25 875.02 423.06C866.39 406.71 849.23 388.4 864.96 421.83C863.39 419.05 852.57 398.29 848.79 401.64C846.02 404.08 855.43 420.93 857.96 425.52L857.84 425.6C854.89 421.11 846.67 407.13 843.9 409.33C840.26 412.23 851.41 429.95 851.41 429.95C851.41 429.95 842.51 415.04 839.97 419.84C838.53 422.54 844.07 431.21 847.6 436.56C848.34 437.68 848.99 438.66 849.47 439.4C849.826 439.963 850.242 440.486 850.71 440.96C854.201 445.772 858.19 450.204 862.61 454.18C862.61 454.18 868.17 460.64 875.89 456.8C880.78 454.38 882.48 447.73 882.72 445.59Z" fill="#FAA994"/>
<path d="M1136.42 424.49C1133.8 420.27 1130.42 410.57 1127.92 406.29C1126.82 404.44 1123.54 397.89 1125.16 396.36C1126.57 395.03 1131.54 398.75 1133.69 400.84C1134.45 382.37 1142.08 358.47 1142.24 395.42C1142.46 392.24 1143.31 368.85 1148.16 370.24C1151.71 371.24 1150.46 390.51 1150.16 395.75H1150.29C1151.03 390.43 1152.44 374.28 1155.89 375.07C1160.43 376.12 1157.97 396.91 1157.97 396.91C1157.97 396.91 1159.6 379.63 1163.97 382.91C1166.43 384.73 1165.15 394.91 1164.27 401.29C1164.09 402.62 1163.92 403.79 1163.81 404.66C1163.73 405.324 1163.58 405.978 1163.36 406.61C1162.28 412.455 1160.58 418.17 1158.3 423.66C1158.3 423.66 1156.05 431.88 1147.42 431.73C1141.94 431.6 1137.55 426.32 1136.42 424.49Z" fill="#FAA994"/>
<path d="M1011.65 997.07C1011.65 997.07 1011.09 1007.8 1003.75 1010.63C996.41 1013.46 975.29 1015.63 982.97 1022.74C987.37 1026.82 1008.7 1024.83 1014.7 1024.99C1020.7 1025.15 1026.27 1027.92 1030.84 1023.99C1035.84 1019.7 1031.55 997.57 1031.55 997.57C1031.55 997.57 1026.3 1000.13 1021.64 999.88C1014.94 999.57 1011.65 997.07 1011.65 997.07Z" fill="#131F2D"/>
<path d="M962.69 726.55C962.78 748.86 963.03 777.9 967.93 813.24C977.28 880.61 988.63 948.55 994.22 981.13C995.131 986.734 997.9 991.87 1002.08 995.709C1006.27 999.549 1011.62 1001.87 1017.28 1002.3L1023.48 1002.71C1035.96 1003.55 1046.38 993.09 1045.82 980.31L1036.05 760.68L1104.05 732.62C1073 718.51 962.63 713.47 962.69 726.55Z" fill="#221BB2"/>
<path d="M1080.42 998.93C1080.42 998.93 1079.87 1009.65 1072.52 1012.48C1065.17 1015.31 1044.07 1017.48 1051.74 1024.59C1056.15 1028.67 1077.47 1026.69 1083.48 1026.85C1089.49 1027.01 1095.04 1029.78 1099.61 1025.85C1104.61 1021.56 1100.33 999.44 1100.33 999.44C1100.33 999.44 1095.07 1001.99 1090.42 1001.75C1083.71 1001.42 1080.42 998.93 1080.42 998.93Z" fill="#131F2D"/>
<path d="M1039.73 834.09L1038.8 833.96C1038.8 833.56 1044.16 793.9 1048.15 779.66C1052.14 765.42 1070.75 752.88 1070.94 752.75L1071.45 753.54C1071.27 753.66 1053 765.87 1049.06 779.91C1045.12 793.95 1039.78 833.69 1039.73 834.09Z" fill="#131F2D"/>
<path d="M1040 524.62L1035.16 510.14L1033.76 505.92L1025.49 481.14L1024.4 505.79L1023.75 520.59L1023.55 525.27C1023.41 528.45 1021.32 529.12 1018.78 531.89C1017.78 533 1011.16 539.79 1018.64 542.89C1027.95 546.71 1045.36 540.89 1051.97 533.35C1051.94 533.31 1041.58 529.3 1040 524.62Z" fill="#FAA994"/>
<path d="M1051.5 498.699C1058.03 485.535 1053.84 470.152 1042.13 464.34C1030.42 458.527 1015.63 464.486 1009.09 477.65C1002.56 490.814 1006.75 506.197 1018.46 512.009C1030.17 517.822 1044.96 511.863 1051.5 498.699Z" fill="#FAA994"/>
<path d="M1019.62 476C1006.36 473.13 1001.76 464.48 1003.26 457.92C1005.18 449.5 1012.72 443.53 1018.54 448.3C1024.36 453.07 1023.45 444.74 1030 445.54C1042.25 447.02 1042.5 455.42 1052.12 458.26C1064.8 462 1074.4 485.51 1060 497.26C1060 497.22 1030.1 478.21 1019.62 476Z" fill="#131F2D"/>
<path d="M1010 464.55C1010 464.55 1020.88 480.66 1017.24 487.26C1013.6 493.86 1013.37 496.75 1020.62 502.59C1027.87 508.43 1019.08 512.73 1029.9 515.93C1040.72 519.13 1057.16 510.53 1062.14 490.8C1063.76 484.109 1062.97 477.063 1059.93 470.89L1010 464.55Z" fill="#131F2D"/>
<path d="M1010.27 485.16C1011.24 484.336 1012.49 483.905 1013.76 483.951C1015.04 483.998 1016.25 484.518 1017.16 485.41C1017.56 485.869 1017.85 486.405 1018.03 486.985C1018.2 487.564 1018.25 488.174 1018.18 488.775C1018.1 489.376 1017.9 489.954 1017.59 490.474C1017.28 490.993 1016.87 491.441 1016.37 491.79C1015.4 492.614 1014.15 493.046 1012.87 492.999C1011.6 492.953 1010.38 492.433 1009.47 491.54C1009.08 491.08 1008.78 490.543 1008.61 489.964C1008.43 489.384 1008.38 488.774 1008.46 488.173C1008.53 487.572 1008.73 486.993 1009.04 486.474C1009.36 485.956 1009.77 485.508 1010.27 485.16V485.16Z" fill="#FAA994"/>
<path d="M1064 504C1063.96 504.001 1063.91 503.994 1063.87 503.977C1063.83 503.96 1063.79 503.935 1063.76 503.903C1063.73 503.871 1063.7 503.833 1063.69 503.791C1063.67 503.749 1063.67 503.704 1063.67 503.66C1063.54 501.745 1062.71 499.946 1061.33 498.61C1061.27 498.548 1061.23 498.464 1061.23 498.377C1061.23 498.289 1061.26 498.204 1061.32 498.139C1061.38 498.075 1061.46 498.036 1061.55 498.03C1061.64 498.025 1061.72 498.053 1061.79 498.11C1063.31 499.573 1064.22 501.561 1064.34 503.67C1064.34 503.758 1064.3 503.842 1064.24 503.904C1064.17 503.966 1064.09 504 1064 504V504Z" fill="#131F2D"/>
<path d="M1063.15 497.27C1062.72 497.271 1062.29 497.234 1061.86 497.16C1061.77 497.143 1061.7 497.093 1061.65 497.02C1061.6 496.947 1061.58 496.857 1061.59 496.77C1061.6 496.725 1061.61 496.683 1061.64 496.644C1061.66 496.606 1061.69 496.573 1061.73 496.548C1061.77 496.523 1061.81 496.505 1061.86 496.497C1061.9 496.489 1061.95 496.49 1061.99 496.5C1061.99 496.5 1065.64 497.17 1066.8 494.75C1066.84 494.67 1066.91 494.608 1066.99 494.578C1067.08 494.548 1067.17 494.552 1067.25 494.59C1067.33 494.631 1067.39 494.701 1067.42 494.785C1067.44 494.869 1067.44 494.96 1067.4 495.04C1066.98 495.781 1066.36 496.385 1065.6 496.78C1064.85 497.176 1064 497.346 1063.15 497.27V497.27Z" fill="#131F2D"/>
<path d="M1021.21 448.34C1020.78 448.33 1020.37 448.213 1020 448C1019.12 447.459 1018.33 446.784 1017.65 446C1016.42 444.68 1015.37 443.54 1012.4 443.68C1012.35 443.688 1012.3 443.686 1012.25 443.673C1012.21 443.66 1012.16 443.637 1012.12 443.605C1012.09 443.573 1012.05 443.533 1012.03 443.488C1012.01 443.443 1012 443.394 1012 443.345C1012 443.295 1012.01 443.246 1012.03 443.201C1012.05 443.157 1012.09 443.117 1012.12 443.085C1012.16 443.053 1012.21 443.03 1012.25 443.017C1012.3 443.004 1012.35 443.001 1012.4 443.01C1013.5 442.898 1014.61 443.072 1015.62 443.516C1016.63 443.959 1017.51 444.656 1018.17 445.54C1018.8 446.28 1019.54 446.915 1020.37 447.42C1020.59 447.559 1020.83 447.646 1021.09 447.674C1021.34 447.702 1021.6 447.669 1021.84 447.58C1023.52 446.96 1024.65 443.93 1024.66 443.9C1024.69 443.816 1024.76 443.749 1024.84 443.712C1024.92 443.675 1025.02 443.67 1025.1 443.7C1025.18 443.731 1025.25 443.794 1025.29 443.874C1025.32 443.955 1025.33 444.046 1025.3 444.13C1025.3 444.27 1024.05 447.49 1022.08 448.21C1021.8 448.308 1021.51 448.352 1021.21 448.34Z" fill="#131F2D"/>
<path d="M1052.93 457.2C1047.39 456.65 1043.93 451.73 1043.81 451.52C1043.77 451.446 1043.76 451.359 1043.78 451.277C1043.8 451.195 1043.85 451.123 1043.92 451.076C1043.99 451.029 1044.07 451.009 1044.16 451.021C1044.24 451.032 1044.32 451.075 1044.37 451.14C1044.37 451.19 1047.77 456.01 1053 456.53C1053.04 456.534 1053.09 456.546 1053.12 456.566C1053.16 456.586 1053.2 456.614 1053.22 456.647C1053.25 456.681 1053.27 456.72 1053.29 456.761C1053.3 456.803 1053.3 456.847 1053.3 456.89C1053.3 456.935 1053.28 456.978 1053.26 457.018C1053.24 457.058 1053.21 457.093 1053.18 457.122C1053.15 457.151 1053.11 457.172 1053.06 457.186C1053.02 457.199 1052.97 457.204 1052.93 457.2V457.2Z" fill="#131F2D"/>
<path d="M1013.06 493.29C1012.38 493.302 1011.71 493.14 1011.11 492.82C1011.09 492.81 1011.07 492.796 1011.06 492.779C1011.05 492.762 1011.04 492.742 1011.04 492.721C1011.03 492.701 1011.03 492.679 1011.03 492.658C1011.04 492.637 1011.05 492.617 1011.06 492.6C1011.07 492.582 1011.08 492.565 1011.1 492.552C1011.12 492.539 1011.14 492.53 1011.16 492.524C1011.18 492.518 1011.2 492.517 1011.22 492.52C1011.24 492.522 1011.26 492.529 1011.28 492.54C1011.39 492.61 1014.03 494.18 1016.99 490.95C1017.02 490.921 1017.06 490.905 1017.11 490.905C1017.15 490.905 1017.19 490.921 1017.22 490.95C1017.24 490.965 1017.25 490.983 1017.26 491.003C1017.26 491.022 1017.27 491.044 1017.27 491.065C1017.27 491.087 1017.26 491.108 1017.26 491.128C1017.25 491.147 1017.24 491.165 1017.22 491.18C1016.72 491.809 1016.09 492.323 1015.37 492.687C1014.65 493.051 1013.86 493.257 1013.06 493.29V493.29Z" fill="#131F2D"/>
<path d="M1095.3 564.63C1095.3 564.63 1086.64 527.4 1033.67 527.41C941.37 527.41 967.26 602.69 958.67 722.41C958.67 722.41 999.3 695.94 1104.29 726.68C1104.29 726.68 1108.86 662.48 1101.84 607.06C1099.11 585 1099.55 577.21 1095.3 564.63Z" fill="#D3CEFD"/>
<path d="M1139.49 419.57C1136.68 419.381 1133.9 420.143 1131.58 421.735C1129.26 423.326 1127.54 425.653 1126.71 428.34C1109.46 483.69 1078.58 524.05 1033.71 527.41C1028.29 527.81 1103.71 623.41 1103.42 620.62C1101 596.23 1108.5 565.94 1121 548C1144.55 514.2 1162.76 475.22 1165 430.82C1165.13 428.287 1164.26 425.805 1162.58 423.909C1160.89 422.014 1158.53 420.857 1156 420.69L1139.49 419.57Z" fill="#D3CEFD"/>
<path d="M1035.09 527.42C1035.09 527.42 928.85 524.56 891.89 445.07C889.64 440.23 883.47 438.51 878.53 441.35L862.96 450.35C861.606 451.094 860.535 452.266 859.917 453.683C859.298 455.099 859.166 456.68 859.54 458.18C863.99 473.97 883.54 516.96 941.46 569.23C947.41 574.6 960.15 596.49 961.4 619.96L1035.09 527.42Z" fill="#D3CEFD"/>
<path d="M924.25 220.05C921.86 220.05 920.65 216.28 920.6 216.12C920.577 216.042 920.585 215.959 920.623 215.887C920.661 215.815 920.725 215.761 920.802 215.737C920.879 215.712 920.963 215.718 921.035 215.754C921.108 215.79 921.163 215.853 921.19 215.93C921.19 215.93 922.39 219.56 924.36 219.43C926.33 219.3 927.21 215.88 927.22 215.85C927.239 215.77 927.288 215.701 927.357 215.656C927.426 215.611 927.509 215.595 927.59 215.61C927.63 215.619 927.668 215.637 927.702 215.661C927.735 215.685 927.764 215.716 927.785 215.751C927.807 215.787 927.821 215.826 927.827 215.867C927.833 215.908 927.83 215.95 927.82 215.99C927.82 216.15 926.88 219.88 924.41 220.05H924.25Z" fill="#EC8751"/>
<path d="M934.64 219.75C932.11 219.75 930.76 216.44 930.7 216.3C930.673 216.221 930.677 216.136 930.71 216.06C930.743 215.984 930.804 215.923 930.88 215.89C930.957 215.863 931.041 215.867 931.116 215.901C931.19 215.934 931.249 215.995 931.28 216.07C931.28 216.07 932.53 219.07 934.65 219.13C936.65 219.13 936.94 216.18 936.94 216.13C936.944 216.089 936.956 216.05 936.975 216.013C936.994 215.977 937.021 215.945 937.052 215.919C937.084 215.893 937.12 215.874 937.159 215.862C937.198 215.85 937.239 215.846 937.28 215.85C937.321 215.854 937.36 215.866 937.396 215.885C937.433 215.904 937.465 215.93 937.491 215.962C937.517 215.993 937.536 216.03 937.548 216.069C937.56 216.108 937.564 216.149 937.56 216.19C937.43 217.44 936.67 219.75 934.64 219.75Z" fill="#EC8751"/>
<path d="M941.92 219.49C939.71 219.49 938.8 216.34 938.76 216.2C938.738 216.12 938.748 216.035 938.788 215.963C938.828 215.891 938.895 215.838 938.975 215.815C939.055 215.792 939.14 215.802 939.212 215.843C939.284 215.883 939.338 215.95 939.36 216.03C939.36 216.03 940.3 219.3 942.36 218.82C942.401 218.807 942.443 218.802 942.486 218.806C942.528 218.81 942.569 218.823 942.606 218.843C942.644 218.864 942.676 218.892 942.702 218.926C942.728 218.96 942.747 218.998 942.757 219.04C942.767 219.081 942.769 219.124 942.762 219.166C942.755 219.208 942.739 219.248 942.716 219.283C942.693 219.319 942.663 219.35 942.627 219.373C942.592 219.397 942.552 219.413 942.51 219.42C942.317 219.467 942.119 219.49 941.92 219.49V219.49Z" fill="#EC8751"/>
<path d="M903 215.69C903 215.69 899.46 208.79 899.37 205.94C899.28 203.09 903.22 197.79 905.49 198C909.3 198.35 905.3 206.15 912.62 214.14C915.76 217.58 920.3 222.25 920.3 222.25L903 215.69Z" fill="#FAA994"/>
</svg>
