<?xml version="1.0" standalone="no"?>
<!DOCTYPE svg PUBLIC "-//W3C//DTD SVG 1.0//EN" "http://www.w3.org/TR/2001/REC-SVG-20010904/DTD/svg10.dtd">
<svg xmlns="http://www.w3.org/2000/svg" xmlns:xlink="http://www.w3.org/1999/xlink" id="body_1" width="810" height="810">

<defs>
        <clipPath  id="1">

            <path clip-rule="evenodd" d="M189.48828 144.76172L626.84766 144.76172L626.84766 392L189.48828 392L189.48828 144.76172z" />        </clipPath>
        <clipPath  id="2">

            <path clip-rule="evenodd" d="M174.58594 164.22266L316.72266 164.22266L316.72266 483.76172L174.58594 483.76172L174.58594 164.22266z" />        </clipPath>
</defs>

<g transform="matrix(1 0 0 1 0 0)">
	<g clip-path="url(#1)" >
        <path d="M189.82812 178.58984C 217.78516 163.71875 241.27344 159.66797 260.85547 155.5664C 291.84375 149.07422 316.0547 149.35547 345.6836 158.84766C 360.9922 163.7539 382.26953 174.16797 400.7422 179.36328C 417.3828 184.04688 432.57422 188.55469 447.7539 187.29297C 468.71875 185.5586 488.39453 172.33203 503.8789 165.4414C 528.9258 154.30078 545.10547 144.76172 545.10547 144.76172C 545.10547 144.76172 550.3906 174.03125 561.2617 205.41406C 570.54297 232.20703 591.8047 266.95703 599.22656 284.34766C 615.33984 322.10156 626.84375 347.26562 626.84375 347.26562C 597.1953 370.0703 554.9414 389.53516 527.1953 390.94922C 496.30078 392.52344 464.90234 383.54297 433.17578 375.08594C 413.10938 369.73438 392.7461 360.5586 371.25 356.8789C 344.2539 352.25 318.60547 349.53906 300.17578 353.5625C 259.89844 362.36328 242.92188 388.01562 242.92188 388.01562L242.92188 388.01562L189.82812 178.58984" stroke="none" fill="#FF1616" fill-rule="nonzero" />
	</g>
	<g clip-path="url(#2)" >
        <path d="M181.32031 165.23828C 186.6289 163.58203 192.23047 166.76562 193.51172 172.16406C 193.51172 172.16406 189.6836 186.96094 205.3125 235.82031C 214.35938 264.1211 257.29297 433.14062 264.90234 492.86328C 272.51562 552.58984 316.2578 686.85547 316.2578 686.85547C 317.4375 691.8164 314.52734 696.83203 309.6289 698.26953L309.6289 698.26953L308.59375 698.5742C 303.3164 700.1211 297.8164 696.9297 296.5547 691.5781C 296.5547 691.5781 294.60547 673.2031 280.1211 622.0547C 274.5625 602.41406 250.47266 517.29297 239.14062 453.08203C 233.51562 421.20703 225.3086 356.72266 203.0625 292.07812C 180.8164 227.4375 174.84766 176.58594 174.84766 176.58594C 173.6875 171.6914 176.51562 166.73828 181.32031 165.23828" stroke="none" fill="#FFFFFF" fill-rule="nonzero" />
	</g>
    <path transform="matrix(0.114625 0 -0 -0.114491 174.58708 698.9652)"  d="M176.5173 4521.62C 176.5173 4521.62 213.90154 4302.7505 314.29715 3995.9573C 414.69275 3689.164 471.36548 3490.9358 541.7719 3183.1873C 612.17834 2875.3704 612.17834 2875.3704 612.17834 2875.3704" stroke="#236346" stroke-width="30" stroke-linecap="square" fill="none" />
	<g>
		<g transform="matrix(1 0 0 1 128.68095 657.53876)">
			<g>
                <path d="M7.566406 0L25.726562 0L25.726562 -105.92969L7.566406 -105.92969L7.566406 0z" stroke="none" fill="#FFFFFF" fill-rule="nonzero" />
			</g>
		</g>
	</g>
	<g>
		<g transform="matrix(1 0 0 1 178.1575 657.53876)">
			<g>
                <path d="M7.566406 -87.76953L7.566406 -18.160156L25.726562 -18.160156L25.726562 0L62.04297 0L62.04297 -18.160156L25.726562 -18.160156L25.726562 -87.76953L7.566406 -87.76953zM25.726562 -105.92969L25.726562 -87.76953L62.04297 -87.76953L62.04297 -69.609375L80.203125 -69.609375L80.203125 -87.76953L62.04297 -87.76953L62.04297 -105.92969zM80.203125 -18.160156L80.203125 -36.320312L62.04297 -36.320312L62.04297 -18.160156z" stroke="none" fill="#FF1616" fill-rule="nonzero" />
			</g>
		</g>
	</g>
	<g>
		<g transform="matrix(1 0 0 1 281.96704 657.53876)">
			<g>
                <path d="M7.566406 -105.92969L7.566406 -87.76953L34.804688 -87.76953L34.804688 0L52.964844 0L52.964844 -87.76953L80.203125 -87.76953L80.203125 -105.92969L7.566406 -105.92969z" stroke="none" fill="#FF1616" fill-rule="nonzero" />
			</g>
		</g>
	</g>
	<g>
		<g transform="matrix(1 0 0 1 385.77655 657.53876)">
			<g>
                <path d="M7.566406 -105.92969L7.566406 0L25.726562 0L25.726562 -43.88672L62.04297 -43.88672L62.04297 -62.04297L25.726562 -62.04297L25.726562 -87.76953L80.203125 -87.76953L80.203125 -105.92969L7.566406 -105.92969z" stroke="none" fill="#FF1616" fill-rule="nonzero" />
			</g>
		</g>
	</g>
	<g>
		<g transform="matrix(1 0 0 1 489.58328 657.53876)">
			<g>
                <path d="M7.566406 -43.88672L7.566406 -18.160156L25.726562 -18.160156L25.726562 0L80.35547 0L80.35547 -18.160156L25.726562 -18.160156L25.726562 -43.88672L7.566406 -43.88672zM25.726562 -105.92969L25.726562 -87.76953L62.04297 -87.76953L62.04297 -62.04297L80.203125 -62.04297L80.203125 -87.76953L62.04297 -87.76953L62.04297 -105.92969zM25.726562 -62.04297L25.726562 -43.88672L62.04297 -43.88672L62.04297 -62.04297zM7.566406 -87.76953L7.566406 -69.609375L25.726562 -69.609375L25.726562 -87.76953z" stroke="none" fill="#FFFFFF" fill-rule="nonzero" />
			</g>
		</g>
	</g>
	<g>
		<g transform="matrix(1 0 0 1 593.5441 657.53876)">
			<g>
                <path d="M7.566406 -43.88672L7.566406 -18.160156L25.726562 -18.160156L25.726562 0L80.35547 0L80.35547 -18.160156L25.726562 -18.160156L25.726562 -43.88672L7.566406 -43.88672zM25.726562 -105.92969L25.726562 -87.76953L62.04297 -87.76953L62.04297 -62.04297L80.203125 -62.04297L80.203125 -87.76953L62.04297 -87.76953L62.04297 -105.92969zM25.726562 -62.04297L25.726562 -43.88672L62.04297 -43.88672L62.04297 -62.04297zM7.566406 -87.76953L7.566406 -69.609375L25.726562 -69.609375L25.726562 -87.76953z" stroke="none" fill="#FFFFFF" fill-rule="nonzero" />
			</g>
		</g>
	</g>
	<g>
		<g transform="matrix(1 0 0 1 251.91554 302.68613)">
			<g>
                <path d="M3.199219 0L10.878906 0L10.878906 -44.796875L3.199219 -44.796875L3.199219 0z" stroke="none" fill="#FFFFFF" fill-rule="nonzero" />
			</g>
		</g>
	</g>
	<g>
		<g transform="matrix(1 0 0 1 272.84268 302.68613)">
			<g>
                <path d="M3.199219 -44.796875L3.199219 0L10.878906 0L10.878906 -29.4375L18.558594 -29.4375L18.558594 -21.757812L26.238281 -21.757812L26.238281 -29.4375L18.558594 -29.4375L18.558594 -37.117188L10.878906 -37.117188L10.878906 -44.796875L3.199219 -44.796875zM33.91797 -29.4375L33.91797 0L41.597656 0L41.597656 -44.796875L33.91797 -44.796875L33.91797 -37.117188L26.238281 -37.117188L26.238281 -29.4375z" stroke="none" fill="#FFFFFF" fill-rule="nonzero" />
			</g>
		</g>
	</g>
	<g>
		<g transform="matrix(1 0 0 1 324.42392 302.68613)">
			<g>
                <path d="M10.878906 -37.117188L26.238281 -37.117188L26.238281 -26.238281L33.91797 -26.238281L33.91797 -37.117188L26.238281 -37.117188L26.238281 -44.796875L3.199219 -44.796875L3.199219 0L10.878906 0L10.878906 -18.558594L26.238281 -18.558594L26.238281 -26.238281L10.878906 -26.238281L10.878906 -37.117188z" stroke="none" fill="#FFFFFF" fill-rule="nonzero" />
			</g>
		</g>
	</g>
	<g>
		<g transform="matrix(1 0 0 1 368.32565 302.68613)">
			<g>
                <path d="M3.199219 -44.796875L3.199219 0L33.91797 0L33.91797 -7.679688L10.878906 -7.679688L10.878906 -18.558594L26.238281 -18.558594L26.238281 -26.238281L10.878906 -26.238281L10.878906 -37.117188L33.91797 -37.117188L33.91797 -44.796875L3.199219 -44.796875z" stroke="none" fill="#FFFFFF" fill-rule="nonzero" />
			</g>
		</g>
	</g>
	<g>
		<g transform="matrix(1 0 0 1 412.29135 302.68613)">
			<g>
                <path d="M10.878906 -37.117188L26.238281 -37.117188L26.238281 -26.238281L33.91797 -26.238281L33.91797 -37.117188L26.238281 -37.117188L26.238281 -44.796875L3.199219 -44.796875L3.199219 0L10.878906 0L10.878906 -18.558594L26.238281 -18.558594L26.238281 0L33.91797 0L33.91797 -18.558594L26.238281 -18.558594L26.238281 -26.238281L10.878906 -26.238281L10.878906 -37.117188z" stroke="none" fill="#FFFFFF" fill-rule="nonzero" />
			</g>
		</g>
	</g>
	<g>
		<g transform="matrix(1 0 0 1 456.19308 302.68613)">
			<g>
                <path d="M3.199219 0L10.878906 0L10.878906 -44.796875L3.199219 -44.796875L3.199219 0z" stroke="none" fill="#FFFFFF" fill-rule="nonzero" />
			</g>
		</g>
	</g>
	<g>
		<g transform="matrix(1 0 0 1 477.1202 302.68613)">
			<g>
                <path d="M10.878906 -37.117188L26.238281 -37.117188L26.238281 -26.238281L10.878906 -26.238281L10.878906 -37.117188L3.199219 -37.117188L3.199219 0L10.878906 0L10.878906 -18.558594L26.238281 -18.558594L26.238281 0L33.91797 0L33.91797 -37.117188L26.238281 -37.117188L26.238281 -44.796875L10.878906 -44.796875L10.878906 -37.117188z" stroke="none" fill="#FFFFFF" fill-rule="nonzero" />
			</g>
		</g>
	</g>
	<g>
		<g transform="matrix(1 0 0 1 521.0219 302.68613)">
			<g>
                <path d="M3.199219 -44.796875L3.199219 0L33.91797 0L33.91797 -7.679688L10.878906 -7.679688L10.878906 -44.796875L3.199219 -44.796875z" stroke="none" fill="#FFFFFF" fill-rule="nonzero" />
			</g>
		</g>
	</g>
	<g>
		<g transform="matrix(1 0 0 1 408.41943 359.68613)">
			<g>
			</g>
		</g>
	</g>
</g>
</svg>